<?xml version="1.0"?>
<svg xmlns="http://www.w3.org/2000/svg" viewBox="0 0 512 512" width="512" height="512"><g id="Fill_out_line" data-name="Fill out line"><path d="M288,408v80a7.99786,7.99786,0,0,1-8,8H240a48,48,0,0,1,0-96h40A7.99782,7.99782,0,0,1,288,408Z" style="fill:#3e454d"/><path d="M444,408v80a7.99786,7.99786,0,0,1-8,8H396a48,48,0,0,1,0-96h40A7.99782,7.99782,0,0,1,444,408Z" style="fill:#3e454d"/><circle cx="280" cy="448" r="40" style="fill:#d4e4f0"/><path d="M280,496a48,48,0,1,1,48-48A48.05405,48.05405,0,0,1,280,496Zm0-80a32,32,0,1,0,32,32A32.03635,32.03635,0,0,0,280,416Z" style="fill:#4f5761"/><path d="M496,267.62V344H416l25.33984-31.67,13.44043-16.8A83.97019,83.97019,0,0,1,496,267.62Z" style="fill:#4f5761"/><path d="M496,344V456H192V408a63.85877,63.85877,0,0,1,1.71-14.73,63.19441,63.19441,0,0,1,9.48-21.43A63.92446,63.92446,0,0,1,256,344Z" style="fill:#529ddf"/><path d="M496,264v3.62a83.97019,83.97019,0,0,0-41.21973,27.91l-13.44043,16.8L416,344H256l19.08008-19.08A207.98761,207.98761,0,0,1,422.16016,264Z" style="fill:#68737f"/><path d="M382.70292,369.85942l-9.75374,1.95074a94.1866,94.1866,0,0,0-38.04043,17.00828L320,400l7.87606,2.62535a64.00005,64.00005,0,0,0,32.79,2.04144l3.47658-.69532A32,32,0,0,0,388.91149,380.354l.789-3.15592A6,6,0,0,0,382.70292,369.85942Z" style="fill:#d4e4f0"/><path d="M256,400l-7.87988,2.63a64.059,64.059,0,0,1-32.79,2.04l-3.47022-.7a31.97289,31.97289,0,0,1-18.1499-10.7,63.19441,63.19441,0,0,1,9.48-21.43,94.16628,94.16628,0,0,1,37.90015,16.98Z" style="fill:#d4e4f0"/><polygon points="416 344 441.336 312.334 472 320 472 344 416 344" style="fill:#3e454d"/><polygon points="224 456 264 424 312 424 352 456 224 456" style="fill:#68737f"/><path d="M472,448a40,40,0,1,1-40.83008-39.99c.27-.01.54981-.01.83008-.01s.56006,0,.83008.01A39.9991,39.9991,0,0,1,472,448Z" style="fill:#d4e4f0"/><circle cx="432" cy="448" r="8" style="fill:#68737f"/><polygon points="144 296 184 296 184 240 224 288 280 240 264 312 328 328 272 368 304 408 256 408 264 464 224 416 208 480 176 456 144 296" style="fill:#fdca77"/><path d="M328,24v85.84a120.0076,120.0076,0,0,1-66.33008,107.33L232,232l-29.66992-14.83A120.0076,120.0076,0,0,1,136,109.84V24a74.6486,74.6486,0,0,0,32,15.65A74.9333,74.9333,0,0,0,232,24a74.85718,74.85718,0,0,0,48,17.38,74.38071,74.38071,0,0,0,16-1.73A74.6486,74.6486,0,0,0,328,24Z" style="fill:#699949"/><path d="M296,39.65v70.19a87.5418,87.5418,0,0,1-48.64014,78.71L232,196.22l-15.35986-7.67A87.5418,87.5418,0,0,1,168,109.84V39.65A74.9333,74.9333,0,0,0,232,24a74.85718,74.85718,0,0,0,48,17.38A74.38071,74.38071,0,0,0,296,39.65Z" style="fill:#7ab355"/><path d="M136,408v80a7.99786,7.99786,0,0,1-8,8H88a48,48,0,0,1,0-96h40A7.99782,7.99782,0,0,1,136,408Z" style="fill:#3e454d"/><path d="M79.6499,265.77,64,344H16V274.35A83.86872,83.86872,0,0,1,56,264h2.40991A127.375,127.375,0,0,1,79.6499,265.77Z" style="fill:#4f5761"/><path d="M159.89014,311.89A124.46907,124.46907,0,0,1,76.46,344H64l15.6499-78.23a129.28974,129.28974,0,0,1,70.24024,36.12Z" style="fill:#3e454d"/><path d="M16,456H192V360.34a45.47034,45.47034,0,0,0-20.25-37.84,45.55373,45.55373,0,0,1-6.93-5.68l-4.93-4.93A124.46827,124.46827,0,0,1,76.46,344H16Z" style="fill:#e04446"/><path d="M56,264a83.86872,83.86872,0,0,0-40,10.35V264Z" style="fill:#68737f"/><path d="M168,448a40,40,0,1,1-40.83008-39.99c.27-.01.54981-.01.83008-.01s.56006,0,.83008.01A39.9991,39.9991,0,0,1,168,448Z" style="fill:#d4e4f0"/><path d="M192,360.34V400l-40-32a54.64211,54.64211,0,0,1,38.62988-16h.6001A45.37929,45.37929,0,0,1,192,360.34Z" style="fill:#d6323f"/><circle cx="128" cy="448" r="8" style="fill:#68737f"/><path d="M198.75586,224.32227l29.666,14.833a8.00049,8.00049,0,0,0,7.15624,0l29.666-14.833A128.00294,128.00294,0,0,0,336,109.83594V24a7.9999,7.9999,0,0,0-13.12109-6.146,66.96408,66.96408,0,0,1-85.75782,0,8.00049,8.00049,0,0,0-10.24218,0,66.96408,66.96408,0,0,1-85.75782,0A7.9999,7.9999,0,0,0,128,24v85.83594a128.00294,128.00294,0,0,0,70.75586,114.48633ZM232,34.08936a82.877,82.877,0,0,0,56,14.8974v60.84918a79.56378,79.56378,0,0,1-44.22266,71.5542L232,187.27881l-11.77734-5.88867A79.56378,79.56378,0,0,1,176,109.83594V48.98615A82.87548,82.87548,0,0,0,232,34.08936Zm-88,5.02246a82.60516,82.60516,0,0,0,16,6.7304v63.99372a95.47573,95.47573,0,0,0,53.06641,85.86474l15.35547,7.67774a8.00058,8.00058,0,0,0,7.15624,0l15.35547-7.67774A95.47573,95.47573,0,0,0,304,109.83594V45.84283a82.59367,82.59367,0,0,0,16-6.731v70.72412a112.002,112.002,0,0,1-61.91211,100.17578L232,223.05566l-26.08789-13.04394A112.002,112.002,0,0,1,144,109.83594Z"/><path d="M491.084,277.87012A8,8,0,0,0,496,270.48828V264a8.00008,8.00008,0,0,0-8-8H422.16016a215.72434,215.72434,0,0,0-115.1211,33.231l8.52735,13.53808A199.74346,199.74346,0,0,1,422.16016,272H468.543a92.17431,92.17431,0,0,0-20.00977,18.53174L412.15479,336H344v16H496V336H480V320a8.00005,8.00005,0,0,0-6.05957-7.76123l-18.56885-4.64221,5.65674-7.07019A76.21364,76.21364,0,0,1,491.084,277.87012ZM464,326.24609V336H432.64648l11.729-14.65979Z"/><path d="M320.10352,401.28125a8.00037,8.00037,0,0,0,5.36621,6.30811l7.87695,2.62548a72.10884,72.10884,0,0,0,36.88867,2.29688l3.47656-.69531a40.17627,40.17627,0,0,0,30.96-29.522l.78906-3.15576a13.99928,13.99928,0,0,0-16.32617-17.124h-.001l-9.75391,1.95068a102.80552,102.80552,0,0,0-41.2705,18.45313L323.2002,393.6001A7.9987,7.9987,0,0,0,320.10352,401.28125Zm27.60546-6.063a86.71466,86.71466,0,0,1,34.8086-15.56347l6.65527-1.33106-.02246.09033A24.10714,24.10714,0,0,1,370.57324,396.127l-3.47656.69532a56.09459,56.09459,0,0,1-21.61523.06689Z"/><circle cx="432" cy="448" r="8"/><rect x="472" y="368" width="24" height="16"/><path d="M432,400a48.054,48.054,0,0,0-48,48H288v16h19.70947A32.12321,32.12321,0,0,1,280,480v16a48.173,48.173,0,0,0,45.25879-32h21.48242A48.173,48.173,0,0,0,392,496h40a48.07584,48.07584,0,0,0,45.248-32H496V448H480A48.054,48.054,0,0,0,432,400Zm-67.70947,64H386.752a48.04252,48.04252,0,0,0,9.50928,16H392A32.12321,32.12321,0,0,1,364.29053,464ZM432,480a32,32,0,1,1,32-32A32.03635,32.03635,0,0,1,432,480Z"/><path d="M193.67578,335.10889a53.609,53.609,0,0,0-17.48828-19.26514,37.52168,37.52168,0,0,1-5.71-4.68066l-4.92969-4.92969-10-10a136.51552,136.51552,0,0,0-74.56347-38.35114v-.00042l-.01612-.00257-.00732-.00134-.00464-.00055A135.84943,135.84943,0,0,0,58.41016,256H16v16H58.41016c3.92089,0,7.83569.214,11.71655.59283L57.44189,336H16v16H76.46A132.18279,132.18279,0,0,0,159.458,322.76953a53.60416,53.60416,0,0,0,7.85449,6.38721,37.55825,37.55825,0,0,1,12.25586,13.5c.38184.71271.72607,1.44244,1.06006,2.17645a63.11075,63.11075,0,0,0-34.28565,17.51007,8.00088,8.00088,0,0,0,.66016,11.90381L184,403.84473V448h-8a48,48,0,0,0-96,0H16v16H42.741A48.17325,48.17325,0,0,0,88,496h40a48.07552,48.07552,0,0,0,45.2478-32H192a8.00008,8.00008,0,0,0,8-8V360.33984a53.44149,53.44149,0,0,0-6.32422-25.231ZM73.759,336l12.16968-60.83252a120.51193,120.51193,0,0,1,58.30469,32.3794l3.832,3.832A116.21378,116.21378,0,0,1,76.46,336ZM60.29053,464H82.7522a48.03788,48.03788,0,0,0,9.509,16H88A32.12321,32.12321,0,0,1,60.29053,464ZM128,480a32,32,0,1,1,32-32A32.03635,32.03635,0,0,1,128,480Zm36.68359-112.09814A47.18337,47.18337,0,0,1,184,360.48669v22.86847Z"/><circle cx="128" cy="448" r="8"/><path d="M122.34277,362.34326A19.18424,19.18424,0,0,1,108.68652,368H104v16h4.68652a35.08124,35.08124,0,0,0,24.97071-10.34326Z"/><rect x="16" y="368" width="32" height="16"/><path d="M265.22363,416H304a7.99979,7.99979,0,0,0,6.24707-12.99756l-26.72266-33.40283,49.125-35.08984a7.99995,7.99995,0,0,0-2.709-14.271L273.5,306.12891l14.30957-64.39356a8,8,0,0,0-13.01562-7.80957L224.95312,276.647l-34.80761-41.76855A8,8,0,0,0,176,240v56h16V262.09619l25.85449,31.02539a7.99924,7.99924,0,0,0,11.35156.95264l37.77833-32.38135-10.79395,48.57178a8.00008,8.00008,0,0,0,5.86914,9.49658l47.19336,11.79834-41.90234,29.93066a8.00008,8.00008,0,0,0-1.59766,11.50733L287.35547,400H256a7.9999,7.9999,0,0,0-7.91992,9.13135l4.01172,28.083-21.94629-26.33594a7.99969,7.99969,0,0,0-13.90625,3.18115l-16,64,15.52148,3.88086,12.17969-48.71582,29.91406,35.897a8.00014,8.00014,0,0,0,14.06543-6.25293Z"/></g></svg>
