<svg id="Capa_1" enable-background="new 0 0 511.418 511.418" height="512" viewBox="0 0 511.418 511.418" width="512" xmlns="http://www.w3.org/2000/svg"><g><g><path d="m100.99 47.5c0-22.091-17.909-40-40-40h-12.5c-22.091 0-40 17.909-40 40v43.375h92.5z" fill="#ffc472"/><path d="m60.99 7.5h-12.5c-1.265 0-2.515.066-3.75.181 20.332 1.891 36.25 18.993 36.25 39.819v43.375h20v-43.375c0-22.091-17.908-40-40-40z" fill="#ff9257"/><path d="m60.99 7.5c22.091 0 40 17.909 40 40v214.375h309.875v-214.375c0-22.091-17.909-40-40-40z" fill="#fff6bb"/><path d="m370.865 7.5h-20c22.091 0 40 17.909 40 40v214.375h20v-214.375c0-22.091-17.908-40-40-40z" fill="#ffc472"/><path d="m7.615 241.812h63.438v200h-63.438z" fill="#fff"/><path d="m51.053 241.812h20v200h-20z" fill="#bedaee"/><path d="m440.365 241.812h63.438v200h-63.438z" fill="#fff"/><path d="m483.803 241.812h20v200h-20z" fill="#bedaee"/><path d="m387.428 419.019-164.821-164.536 27.354-27.267-41.627.524c-7.87.099-15.387 3.287-20.928 8.877l-24.978 25.196h-91.375v150h95l87.271 86.627c7.322 7.322 19.194 7.322 26.516 0s7.322-19.194 0-26.516l11.011 10.878c7.322 7.322 19.194 7.322 26.517 0 7.157-7.157 7.299-18.648.466-26.001l6.594 6.594c7.322 7.322 19.194 7.322 26.517 0 7.209-7.209 7.304-18.817.319-26.163l10.133 10.133c6.836 5.493 18.708 5.493 26.03-1.829 7.323-7.323 7.323-19.195.001-26.517z" fill="#ffcfc5"/><path d="m387.428 419.019-128.683-128.461-14.099 13.896 125.783 125.565c5.746 5.746 6.962 14.285 3.69 21.238 4.774-.205 9.62-2.031 13.31-5.721 7.321-7.323 7.321-19.195-.001-26.517z" fill="#ff9f87"/><g fill="#ffcfc5"><path d="m189.626 364.049-38.37 38.37c-7.322 7.322-7.322 19.194 0 26.516 7.322 7.322 19.194 7.322 26.03 1.829l39.528-39.528c7.508-7.508 7.508-19.68 0-27.188-7.508-7.507-19.68-7.507-27.188.001z"/><path d="m139.134 360.177-31.299 31.299c-7.322 7.322-7.322 19.194 0 26.516 7.322 7.322 19.194 7.322 26.03 1.829l32.457-32.457c7.508-7.508 7.508-19.68 0-27.188-7.508-7.507-19.68-7.507-27.188.001z"/><path d="m216.814 391.237-38.37 38.37c-7.322 7.322-7.322 19.194 0 26.516 7.322 7.322 19.194 7.322 26.03 1.829l39.528-39.528c7.508-7.508 7.508-19.68 0-27.188-7.508-7.507-19.68-7.507-27.188.001z"/><path d="m236.93 425.495-31.299 31.299c-7.322 7.322-7.322 19.194 0 26.516 7.322 7.322 19.194 7.322 26.03 1.829l32.457-32.457c7.508-7.508 7.508-19.68 0-27.188-7.508-7.506-19.68-7.506-27.188.001z"/><path d="m361.646 261.875-37.68-28.566c-5.215-3.954-11.58-6.093-18.124-6.093h-55.881l-73.033 71.659 13.739 15.049c11.429 12.519 30.953 13.089 43.093 1.258l24.984-24.624 123.239 123.064 58.381-1.81v-149.937z"/></g><path d="m420.365 261.875v149.937l-38.983 1.209.602.601 58.381-1.81v-149.937z" fill="#ff9f87"/></g><g><path d="m432.865 234.312v20.062h-14.5v-206.874c0-26.191-21.309-47.5-47.5-47.5h-68.529v15h68.529c17.92 0 32.5 14.58 32.5 32.5v206.875h-39.198l-35.67-27.042c-6.479-4.912-14.524-7.617-22.655-7.617h-58.945l-.039.038-38.617.486c-9.9.125-19.19 4.065-26.16 11.096l-22.777 22.977h-50.814v-206.813c0-12.56-4.9-23.997-12.889-32.5h190.327v-15h-237.438c-26.191 0-47.5 21.309-47.5 47.5v50.875h92.5v155.938h-14.937v-20h-78.438v215h78.438v-30h20.712c.94 1.406 2.027 2.742 3.267 3.982 5.249 5.249 12.475 7.94 19.629 7.94 5.9 0 11.751-1.831 16.402-5.568l.317-.255.915-.915c1.264 3.559 3.314 6.898 6.157 9.741 5.224 5.224 12.407 7.913 19.528 7.938-.181 6.95 2.368 13.958 7.66 19.25 5.221 5.221 12.398 7.909 19.516 7.938-.006.229-.017.458-.017.688 0 7.012 2.731 13.604 7.689 18.562 5.249 5.249 12.475 7.94 19.629 7.94 5.619 0 11.18-1.682 15.716-5.068l12.347 12.256c5.118 5.117 11.84 7.676 18.562 7.676s13.444-2.559 18.562-7.676c3.189-3.189 5.385-7.002 6.586-11.05 9.931 5.304 22.579 3.774 30.942-4.589 3.691-3.691 6.063-8.193 7.104-12.925 2.526.795 5.187 1.207 7.912 1.207 7.012 0 13.604-2.731 18.562-7.688 3.405-3.405 5.689-7.481 6.848-11.786 9.783 3.861 21.872 1.69 29.635-6.073 4.958-4.958 7.688-11.55 7.688-18.562 0-4.105-.943-8.064-2.715-11.638l35.161-1.09v29.764h78.438v-215zm-416.875-150.937v-35.875c0-17.92 14.58-32.5 32.5-32.5h12.5c17.92 0 32.5 14.58 32.5 32.5v35.875zm97.148 329.313c-4.386-4.386-4.386-11.523 0-15.91l31.299-31.299c2.215-2.214 5.159-3.434 8.291-3.434s6.076 1.22 8.291 3.434c2.214 2.215 3.434 5.159 3.434 8.291 0 3.077-1.183 5.969-3.324 8.17l-15.175 15.175c-.073.073-.139.149-.211.222l-16.846 16.846c-3.939 2.907-11.235 3.028-15.759-1.495zm43.317-4.85 38.475-38.486c4.572-4.572 12.01-4.571 16.581 0 4.571 4.572 4.571 12.01 0 16.582l-39.193 39.193c-3.938 2.907-11.234 3.028-15.757-1.495-4.35-4.349-4.381-11.399-.106-15.794zm43.05 44.476c-3.938 2.907-11.234 3.028-15.757-1.495-2.125-2.125-3.295-4.95-3.295-7.955s1.17-5.83 3.295-7.955l38.37-38.37c2.286-2.286 5.288-3.429 8.291-3.429 3.002 0 6.005 1.143 8.291 3.429 4.571 4.571 4.571 12.01 0 16.581l-7.053 7.053c-.006.006-.012.011-.018.017l-31.299 31.299zm11.43 25.693c-4.386-4.386-4.386-11.523 0-15.91l31.299-31.299c2.214-2.215 5.159-3.434 8.291-3.434s6.076 1.22 8.291 3.435c2.214 2.214 3.434 5.158 3.434 8.29 0 3.131-1.22 6.076-3.434 8.291l-32.123 32.122c-3.938 2.906-11.235 3.028-15.758-1.495zm63.602 15.129c-4.387 4.386-11.523 4.386-15.93-.02l-12.203-12.113 15.855-15.855 12.278 12.077c4.387 4.387 4.387 11.525 0 15.911zm107.588-68.814c4.386 4.386 4.386 11.524 0 15.91-4.523 4.522-11.818 4.4-15.758 1.495l-43.26-42.871-10.544 10.669 33.299 32.91c4.204 4.457 4.113 11.323-.219 15.655-2.125 2.125-4.95 3.295-7.955 3.295s-5.83-1.17-7.955-3.295l-34.45-34.131-10.546 10.667 27.651 27.335c4.086 4.453 3.952 11.262-.322 15.536-4.386 4.387-11.524 4.386-15.942-.032l-23.58-23.24c7.158-10.405 6.122-24.788-3.122-34.032-3.846-3.846-8.583-6.268-13.553-7.275 2.908-9.211.725-19.695-6.563-26.984-5.048-5.048-11.759-7.828-18.897-7.828-.159 0-.316.009-.474.011.003-.158.012-.316.012-.474 0-7.139-2.78-13.85-7.828-18.897-10.419-10.419-27.373-10.42-37.794 0l-6.32 6.32c-1.303-3.793-3.458-7.272-6.378-10.192-5.048-5.048-11.759-7.828-18.897-7.828s-13.849 2.78-18.897 7.828l-31.299 31.299c-5.01 5.01-7.561 11.559-7.666 18.14h-16.315v-43.438h-15v73.438h-48.438v-185h48.438v96.5h15v-76.5h87l27.179-27.416c4.182-4.219 9.756-6.583 15.696-6.658l22.941-.288-64.859 63.639 18.618 20.392c6.909 7.568 16.356 11.901 26.6 12.2 10.239.299 19.927-3.476 27.297-10.657l19.685-19.401zm114.178 9.99h-48.438v-118.5h-15v88.729l-47.838 1.483-61.278-61.153c7.585-1.057 14.902-4.413 20.771-10.078l6.616-6.385-10.417-10.793-6.616 6.385c-8.764 8.457-22.904 8.338-31.523-.269l-43.801-43.738-30.253 29.816c-4.404 4.292-10.209 6.546-16.36 6.377-6.146-.18-11.814-2.779-15.959-7.32l-8.861-9.706 65.681-64.445h52.815c4.878 0 9.706 1.623 13.593 4.57l39.689 30.089h73.741v32.5h15v-52.562h48.438z"/><path d="m158.99 128.438h43.875v15h-43.875z"/><path d="m308.99 128.438h43.875v15h-43.875z"/><path d="m190.928 38.438h130v15h-130z"/><path d="m180.928 75.438h153.622v15h-153.622z"/><path d="m158.691 193.175 14.505-9.371 17.306 11.179 19.848-5.341 16.629 4.475 3.898-14.484-20.527-5.525-17.309 4.659-19.845-12.821-22.644 14.629z"/><path d="m321.634 165.946-22.645 14.629 8.14 12.6 14.505-9.371 17.306 11.179 19.847-5.341 16.629 4.475 3.899-14.484-20.528-5.525-17.308 4.659z"/><path d="m465.928 368.312h15v15h-15z"/><path d="m30.928 368.312h15v15h-15z"/></g></g></svg>