<svg id="Capa_1" enable-background="new 0 0 497 497" height="512" viewBox="0 0 497 497" width="512" xmlns="http://www.w3.org/2000/svg"><g><path d="m238.812 463.399h-228.812c-5.523 0-10-4.477-10-10v-364.146c0-5.523 4.477-10 10-10h228.812c5.523 0 10 4.477 10 10v364.145c0 5.523-4.477 10.001-10 10.001z" fill="#e1ebf0"/><path d="m248.81 89.25v339.52c0 5.523-4.477 10-10 10h-204.33c-5.523 0-10-4.477-10-10v-339.52c0-5.523 4.477-10 10-10h204.33c5.523 0 10 4.477 10 10z" fill="#d2e4e7"/><path d="m318.345 423.772h-268.869c-5.523 0-10-4.477-10-10v-364.145c0-5.523 4.477-10 10-10h268.87c5.523 0 10 4.477 10 10v364.145c-.001 5.523-4.478 10-10.001 10z" fill="#e1ebf0"/><path d="m328.35 49.63v339.52c0 5.523-4.477 10-10 10h-244.4c-5.523 0-10-4.477-10-10v-339.52c0-5.523 4.477-10 10-10h244.4c5.523 0 10 4.477 10 10z" fill="#d2e4e7"/><path d="m78.95 374.15v-364.15c0-5.523 4.477-10 10-10h268.87c5.523 0 10 4.477 10 10v364.15c0 5.523-4.477 10-10 10h-268.87c-5.523 0-10-4.477-10-10z" fill="#e1ebf0"/><path d="m251.143 135.197h79.169c2.761 0 5-2.239 5-5v-79.51c0-2.761-2.239-5-5-5h-79.169c-2.761 0-5 2.239-5 5v79.51c0 2.761 2.238 5 5 5z" fill="#f3d332"/><path d="m271.14 135.2h-20c-2.76 0-5-2.24-5-5v-79.51c0-2.76 2.24-5 5-5h20c-2.76 0-5 2.24-5 5v79.51c0 2.76 2.24 5 5 5z" fill="#ecc52e"/><g><path d="m213.634 130.575h-102.173c-4.143 0-7.5-3.357-7.5-7.5s3.357-7.5 7.5-7.5h102.173c4.143 0 7.5 3.357 7.5 7.5s-3.358 7.5-7.5 7.5z" fill="#b4d2d7"/></g><g><path d="m274.937 193.979h-103.101c-4.143 0-7.5-3.357-7.5-7.5s3.357-7.5 7.5-7.5h103.101c4.143 0 7.5 3.357 7.5 7.5s-3.358 7.5-7.5 7.5z" fill="#b4d2d7"/></g><g><path d="m213.634 97.942h-102.173c-4.143 0-7.5-3.357-7.5-7.5s3.357-7.5 7.5-7.5h102.173c4.143 0 7.5 3.357 7.5 7.5s-3.358 7.5-7.5 7.5z" fill="#b4d2d7"/></g><g><path d="m213.634 65.309h-102.173c-4.143 0-7.5-3.357-7.5-7.5s3.357-7.5 7.5-7.5h102.173c4.143 0 7.5 3.357 7.5 7.5s-3.358 7.5-7.5 7.5z" fill="#b4d2d7"/></g><g><path d="m265.316 276.961h-153.855c-4.143 0-7.5-3.357-7.5-7.5s3.357-7.5 7.5-7.5h153.855c4.143 0 7.5 3.357 7.5 7.5s-3.357 7.5-7.5 7.5z" fill="#b4d2d7"/></g><g><path d="m233.139 235.004h-121.678c-4.143 0-7.5-3.357-7.5-7.5s3.357-7.5 7.5-7.5h121.678c4.143 0 7.5 3.357 7.5 7.5s-3.358 7.5-7.5 7.5z" fill="#b4d2d7"/></g><g><path d="m335.776 235.004h-70.128c-4.143 0-7.5-3.357-7.5-7.5s3.357-7.5 7.5-7.5h70.128c4.143 0 7.5 3.357 7.5 7.5s-3.357 7.5-7.5 7.5z" fill="#b4d2d7"/></g><path d="m394.97 320.74c5.523 0 10 4.477 10 10v6.79c0 25.74-20.79 46.62-46.44 46.62l-151.626 5-82.444-5c25.65 0 46.45-20.88 46.45-46.62v-6.79c0-5.523 4.477-10 10-10z" fill="#d2e4e7"/><path d="m367.82 257.27v63.47h-104.22c18.03-38.43 56.89-63.56 99.91-63.56 1.44 0 2.88.03 4.31.09z" fill="#d2e4e7"/><path d="m328.35 320.74v68.41c0 5.52-4.48 10-10 10h-60.72c-1.12-3.78-2.03-7.64-2.74-11.58-1.16-6.4-1.76-13-1.76-19.73 0-12.59 2.09-24.95 6.23-36.74 1.25-3.55 2.66-7 4.24-10.36z" fill="#b4d2d7"/><path d="m439.717 416.594 50.765 45.171c8.414 8.297 8.723 21.523.69 29.483-8.022 7.949-21.31 7.618-29.64-.739l-50.705-45.414z" fill="#f3d332"/><path d="m454.78 430c-7.67 11.29-17.38 21.09-28.58 28.86l-15.37-13.76 28.89-28.51z" fill="#ecc52e"/><path d="m328.35 389.15v24.62c0 5.52-4.48 10-10 10h-50.05c-4.51-7.66-8.11-15.92-10.67-24.62h60.72c5.52 0 10-4.48 10-10z" fill="#d2e4e7"/><path d="m273.126 367.842c0-10.558 1.799-20.694 5.107-30.118 12.378-35.265 45.883-60.541 85.272-60.541 49.915 0 90.379 40.589 90.379 90.658s-40.464 90.659-90.379 90.659-90.379-40.589-90.379-90.658z" fill="#30579d"/><path d="m432.74 426.1c-16.56 19.81-41.43 32.4-69.23 32.4-49.92 0-90.38-40.59-90.38-90.66 0-10.56 1.8-20.69 5.1-30.12 6.12-17.43 17.41-32.42 32.02-43.12-6.91 8.25-12.38 17.75-16.02 28.12-3.3 9.43-5.1 19.56-5.1 30.12 0 50.07 40.46 90.66 90.38 90.66 19.9 0 38.3-6.46 53.23-17.4z" fill="#30569f"/><path d="m307.077 367.842c0-6.592 1.123-12.921 3.189-18.804 7.729-22.018 28.647-37.799 53.24-37.799 31.165 0 56.429 25.342 56.429 56.603s-25.264 56.603-56.429 56.603-56.429-25.342-56.429-56.603z" fill="#e1ebf0"/><path d="m412.08 396.65c-9.82 16.64-27.9 27.79-48.57 27.79-31.17 0-56.43-25.34-56.43-56.6 0-6.59 1.12-12.92 3.19-18.8 4.45-12.68 13.27-23.29 24.66-30.01-1.87 3.15-3.43 6.5-4.66 10.01-2.07 5.88-3.19 12.21-3.19 18.8 0 31.26 25.26 56.6 56.43 56.6 10.43 0 20.19-2.84 28.57-7.79z" fill="#d2e4e7"/></g></svg>