<svg id="Layer_30" enable-background="new 0 0 496 496" height="512" viewBox="0 0 496 496" width="512" xmlns="http://www.w3.org/2000/svg"><g><g><g><path d="m264 168h32v128h-32z" fill="#cf9e76"/></g><g><path d="m296 56v48h-32v-32h-32v-32h48c8.84 0 16 7.16 16 16z" fill="#cf9e76"/></g><g><path d="m296 453.27v18.73c0 8.84-7.16 16-16 16h-256c-8.84 0-16-7.16-16-16v-416c0-8.84 7.16-16 16-16h48v32h-32v128 32 64 96 32 32h240c5.61 0 11-.96 16-2.73z" fill="#cf9e76"/></g><g><path d="m280 456h-240v-32h194.73c6.59 18.64 24.37 32 45.27 32z" fill="#f0d0b4"/></g><g><path d="m264 168v128l-45-67.5c-11.87-17.81-31.85-28.5-53.25-28.5h-125.75v-128h32 160 32v32h-48l-56.51 21.19c-4.51 1.69-7.49 6-7.49 10.81 0 2.4.74 4.68 2.05 6.58 1.31 1.88 3.19 3.38 5.44 4.23l56.51 21.19z" fill="#f0d0b4"/></g><g><path d="m392 360v32h-66.73c-6.59-18.64-24.37-32-45.27-32s-38.68 13.36-45.27 32h-9.19v-96l-21.33-32h-.01l-11.83-17.75c-5.95-8.92-15.9-14.25-26.62-14.25h-125.75v-32h125.75c21.4 0 41.38 10.69 53.25 28.5l45 67.5h32 32v18c0 25.41 20.59 46 46 46z" fill="#ffeaa7"/></g><g><path d="m192.37 246.25 11.83 17.75h-36.2c-4.42 0-8 3.58-8 8v16c0 4.42 3.58 8 8 8h-128v-64h125.75c10.72 0 20.67 5.33 26.62 14.25z" fill="#69d6f4"/></g><g><path d="m204.21 264 21.33 32h-49.54-8c-4.42 0-8-3.58-8-8v-16c0-4.42 3.58-8 8-8h36.2z" fill="#aab2bd"/></g><g><path d="m225.54 296v96h-185.54v-96h128 8z" fill="#fcd770"/></g><g><path d="m392 360h-18c-25.41 0-46-20.59-46-46v-18c35.35 0 64 28.65 64 64z" fill="#ff826e"/></g><g><path d="m234.73 424c-1.77-5-2.73-10.39-2.73-16s.96-11 2.73-16c6.59-18.64 24.37-32 45.27-32s38.68 13.36 45.27 32c1.77 5 2.73 10.39 2.73 16s-.96 11-2.73 16c-4.82 13.64-15.63 24.45-29.27 29.27-5 1.77-10.39 2.73-16 2.73-20.9 0-38.68-13.36-45.27-32z" fill="#969faa"/></g><g><path d="m392 392v16c0 8.84-7.16 16-16 16h-50.73c1.77-5 2.73-10.39 2.73-16s-.96-11-2.73-16z" fill="#ccd1d9"/></g><g><circle cx="280" cy="408" fill="#ccd1d9" r="16"/></g><g><path d="m225.54 392h9.19c-1.77 5-2.73 10.39-2.73 16s.96 11 2.73 16h-194.73v-32z" fill="#ccd1d9"/></g><g><path d="m232 40v32h-160v-32-16c0-8.84 7.16-16 16-16h128c8.84 0 16 7.16 16 16z" fill="#ccd1d9"/></g><g><path d="m392 104v64h-96-32-48v-64h48 32z" fill="#ff826e"/></g><g><path d="m478.63 113.37c5.79 5.79 9.37 13.79 9.37 22.63 0 17.67-14.33 32-32 32h-32v-64h32c8.84 0 16.84 3.58 22.63 9.37z" fill="#ccd1d9"/></g><g><path d="m216 104v64l-56.51-21.19c-2.25-.85-4.13-2.35-5.44-4.23-1.31-1.9-2.05-4.18-2.05-6.58 0-4.81 2.98-9.12 7.49-10.81z" fill="#ccd1d9"/></g><g><path d="m392 104h32v64h-32z" fill="#ffeaa7"/></g></g><g><path d="m280 384c-13.233 0-24 10.766-24 24s10.767 24 24 24 24-10.766 24-24-10.767-24-24-24zm0 32c-4.411 0-8-3.589-8-8s3.589-8 8-8 8 3.589 8 8-3.589 8-8 8z"/><path d="m456 96h-152v-40c0-13.233-10.767-24-24-24h-40v-8c0-13.233-10.767-24-24-24h-128c-13.233 0-24 10.767-24 24v8h-40c-13.233 0-24 10.767-24 24v416c0 13.233 10.767 24 24 24h256c13.233 0 24-10.767 24-24v-13.414c11.624-5.537 21.049-14.962 26.586-26.586h45.414c13.233 0 24-10.767 24-24v-48c0-39.701-32.299-72-72-72h-24v-112h152c22.056 0 40-17.944 40-40s-17.944-40-40-40zm-82 272h10v16h-53.414c-9.004-18.902-28.292-32-50.586-32-19.324 0-36.391 9.839-46.46 24.769v-83.191l-34.511-51.766c-7.434-11.153-19.877-17.812-33.281-17.812h-117.748v-16h117.748c18.767 0 36.186 9.322 46.595 24.937l47.376 71.063h60.281v10c0 29.776 24.225 54 54 54zm-326-128h117.748c8.043 0 15.508 3.995 19.969 10.687l3.542 5.313h-21.259c-8.822 0-16 7.178-16 16v16h-104zm162.592 48h-34.592-8v-16h31.925zm-162.592 16h120 8 41.54v80h-169.54zm0 96h176.581c-.376 2.614-.581 5.283-.581 8s.205 5.386.581 8h-176.581zm0 32h181.414c2.857 5.997 6.752 11.405 11.447 16h-192.861zm208-162.422-30.345-45.517c-13.383-20.075-35.778-32.061-59.907-32.061h-117.748v-112h208v16h-41.451l-57.868 21.701c-7.585 2.845-12.681 10.199-12.681 18.299s5.096 15.454 12.682 18.3l57.867 21.7h41.451zm-93.7-130.259c-1.375-.516-2.3-1.85-2.3-3.319s.925-2.803 2.299-3.318l45.701-17.138v40.912zm61.7 20.681v-48h160v48zm176-48h16v48h-16zm-120-64c4.411 0 8 3.589 8 8v40h-16v-32h-32v-16zm-192-32h128c4.411 0 8 3.589 8 8v40h-144v-40c0-4.411 3.589-8 8-8zm200 456c0 4.411-3.589 8-8 8h-256c-4.411 0-8-3.589-8-8v-416c0-4.411 3.589-8 8-8h40v16h-32v400h248c2.717 0 5.386-.205 8-.581zm-8-24c-22.056 0-40-17.944-40-40s17.944-40 40-40 40 17.944 40 40-17.944 40-40 40zm96-32h-40.581c.376-2.614.581-5.283.581-8s-.205-5.386-.581-8h48.581v8c0 4.411-3.589 8-8 8zm7.419-64h-9.419c-20.953 0-38-17.047-38-38v-9.419c24.487 3.519 43.9 22.932 47.419 47.419zm-95.419-64h-16v-112h16zm168-128h-24v-48h24c13.233 0 24 10.767 24 24s-10.767 24-24 24z"/><path d="m146.343 90.343-66.343 66.344-10.343-10.344-11.314 11.314 21.657 21.656 77.657-77.656z"/><circle cx="104" cy="40" r="8"/><circle cx="200" cy="40" r="8"/></g></g></svg>