<svg id="Capa_1" enable-background="new 0 0 512 512" height="512" viewBox="0 0 512 512" width="512" xmlns="http://www.w3.org/2000/svg"><g><g><g><g><g><path d="m135.452 249.897c2.056-1.287 4.222-2.435 6.488-3.427l.517-.227 8.174-26.611-.714-1.533c-4.41-3.59-10.036-5.745-16.166-5.745h-13.019c-10.367 0-18.772 8.404-18.772 18.771 0 10.368 8.404 18.772 18.772 18.772z" fill="#fd4755"/></g></g><path d="m331.385 207.807c0-11.984 3.219-23.209 8.816-32.887-6.813-4.906-15.13-7.734-23.958-7.734h-120.486c-18.011 0-33.913 11.751-39.202 28.968l-15.526 50.545c6.365-2.935 13.44-4.586 20.897-4.586h179.104c-6.116-9.99-9.645-21.735-9.645-34.306z" fill="#0182fc"/><g><g><path d="m198.584 196.154c5.289-17.217 21.191-28.968 39.202-28.968h-42.029c-18.011 0-33.913 11.751-39.202 28.968l-15.526 50.545c6.365-2.935 13.44-4.586 20.897-4.586h22.541z" fill="#0172fb"/></g></g><g><g><g><path d="m127.358 358.164c-2.59 0-5.029-.647-7.178-1.774v43.505c0 3.162 2.564 5.726 5.726 5.726h32.717c3.162 0 5.726-2.564 5.726-5.726v-41.732h-36.991z" fill="#685e68"/></g></g><g><path d="m141 399.896v-41.732h-13.642c-2.59 0-5.029-.647-7.178-1.774v43.505c0 3.162 2.564 5.726 5.726 5.726h20.82c-3.162.001-5.726-2.563-5.726-5.725z" fill="#554e56"/></g><g><g><path d="m384.642 358.164h-36.992v41.732c0 3.162 2.564 5.726 5.726 5.726h32.717c3.162 0 5.726-2.564 5.726-5.726v-43.505c-2.148 1.127-4.587 1.773-7.177 1.773z" fill="#685e68"/></g></g><g><g><path d="m366.831 399.896v-41.732h-19.18v41.732c0 3.162 2.563 5.726 5.726 5.726h19.18c-3.163 0-5.726-2.564-5.726-5.726z" fill="#554e56"/></g></g></g><g><path d="m397.193 273.615c-24.209 0-45.351-13.081-56.78-32.552h-178.488c-28.239 0-51.131 22.892-51.131 51.131v33.841h63.432c6.423 0 12.513-3.101 16.291-8.296 2.759-3.793 7.207-6.058 11.899-6.058h107.117c4.691 0 9.139 2.265 11.899 6.058 3.778 5.195 9.868 8.296 16.291 8.296h63.482v-33.841c0-6.561-1.25-12.827-3.501-18.592-.171.001-.34.013-.511.013z" fill="#fd4755"/><g><g><path d="m204.131 241.063h-42.206c-28.239 0-51.131 22.892-51.131 51.131v33.841h42.206v-33.841c0-28.239 22.892-51.131 51.131-51.131z" fill="#fb2b3a"/></g></g><path d="m397.193 273.615c-8.125 0-15.901-1.482-23.085-4.174-12.063 9.351-19.832 23.975-19.832 40.42v15.123h46.93v-32.79c0-6.561-1.242-12.83-3.497-18.592-.173.001-.343.013-.516.013z" fill="#fff0ad"/><g><path d="m110.794 324.984v-32.79c0-11.775 3.991-22.613 10.68-31.256 20.979 6.373 36.25 25.862 36.25 48.924v15.123h-46.93z" fill="#fff0ad"/></g></g><g><path d="m337.723 324.984c-6.109 0-11.848-2.923-15.441-7.863-2.966-4.079-7.705-6.492-12.749-6.492h-107.117c-5.043 0-9.782 2.413-12.749 6.492-3.593 4.94-9.333 7.863-15.441 7.863h-63.432v17.668c0 9.148 7.416 16.563 16.563 16.563h257.285c9.148 0 16.563-7.415 16.563-16.563v-17.668z" fill="#e2dee2"/></g><g><g><path d="m144.589 342.652v-17.668h-33.794v17.668c0 9.148 7.416 16.563 16.563 16.563h33.794c-9.148 0-16.563-7.416-16.563-16.563z" fill="#cbc4cc"/></g></g></g></g><g><g><path d="m466.657 484.282h23.851c7.728 0 13.992-6.264 13.992-13.992v-50.66c0-7.727-6.264-13.992-13.992-13.992h-23.851z" fill="#cbc4cc"/></g><g><path d="m7.5 433.409v23.103c0 2.513 1.588 4.751 3.96 5.581l31.73 11.105c1.355.474 2.836.439 4.168-.098l29.622-11.963c.704-.284 1.455-.43 2.214-.43h173.923v-31.493h-173.923c-.759 0-1.51-.146-2.214-.43l-29.623-11.964c-1.331-.538-2.812-.573-4.167-.098l-31.73 11.105c-2.372.83-3.96 3.069-3.96 5.582z" fill="#e2dee2"/></g><g><path d="m253.117 444.177h-173.923c-.759 0-1.511.146-2.214.43l-29.623 11.963c-1.331.538-2.813.573-4.168.098l-31.73-11.106c-2.372-.83-3.96-3.068-3.96-5.581v16.53c0 2.513 1.588 4.751 3.96 5.581l31.73 11.105c1.355.474 2.836.439 4.168-.098l29.622-11.963c.704-.284 1.456-.43 2.214-.43h173.923z" fill="#cbc4cc"/></g><g><path d="m251.935 411.551v66.817c0 3.266 2.647 5.913 5.913 5.913h8.404c1.177 0 2.327-.351 3.303-1.009l19.629-13.222v-50.182l-19.629-13.222c-.976-.658-2.126-1.009-3.303-1.009h-8.404c-3.266.001-5.913 2.649-5.913 5.914z" fill="#fe860a"/></g><g><path d="m467.839 405.638v78.643h-145.89c-5.143 0-10.197-1.342-14.663-3.892l-18.1-10.338v-50.182l18.1-10.338c4.466-2.551 9.52-3.892 14.663-3.892h145.89z" fill="#fe860a"/></g><g><path d="m333.346 467.149v-44.377c0-1.795.962-3.452 2.52-4.342l15.58-8.899c4.466-2.551 9.52-3.892 14.663-3.892h-44.161c-5.143 0-10.197 1.342-14.663 3.892l-18.1 10.338v50.182l18.101 10.338c4.466 2.551 9.52 3.892 14.663 3.892h44.161c-5.143 0-10.197-1.342-14.663-3.893l-15.58-8.899c-1.559-.889-2.521-2.546-2.521-4.34z" fill="#fe7701"/></g></g><g><path d="m500.865 123.528h-38.941c-16.462 0-30.43-13.469-30.207-29.929.218-16.056 13.419-29.123 29.524-29.123h39.624c2.823 0 4.585-3.109 3.091-5.504-11.704-18.763-32.52-31.253-56.263-31.253-26.943 0-50.114 16.085-60.48 39.168h-254.247c3.854 8.4 5.896 17.599 5.896 27.117 0 9.517-2.042 18.716-5.896 27.115h254.247c3.592 7.998 8.723 15.153 15.013 21.093 15.552 1.178 29.587 7.753 40.245 17.868 1.723.134 3.464.206 5.221.206 23.743 0 44.559-12.49 56.263-31.253 1.495-2.396-.267-5.505-3.09-5.505z" fill="#cbc4cc"/><g><g><path d="m140.067 94.002c0-36.607-29.676-66.283-66.283-66.283-36.608-.001-66.284 29.675-66.284 66.283s29.676 66.284 66.283 66.284c36.608-.001 66.284-29.677 66.284-66.284zm-97.618 0c0-17.278 14.056-31.334 31.334-31.334s31.334 14.056 31.334 31.334-14.056 31.334-31.334 31.334c-17.277 0-31.334-14.057-31.334-31.334z" fill="#e2dee2"/></g></g><g><g><path d="m54.881 118.972c-7.547-5.727-12.432-14.787-12.432-24.97s4.885-19.243 12.432-24.97c7.222-17.74 21.902-31.637 40.152-37.812-6.673-2.258-13.814-3.501-21.25-3.501-36.607-.001-66.283 29.675-66.283 66.283 0 36.607 29.676 66.284 66.284 66.284 7.436 0 14.577-1.243 21.25-3.501-18.251-6.176-32.93-20.072-40.153-37.813z" fill="#cbc4cc"/></g></g></g><g><g><g><circle cx="397.193" cy="207.807" fill="#ffe177" r="65.807"/></g><g><path d="m365.385 207.807c0-30.464 20.705-56.083 48.808-63.578-5.424-1.447-11.12-2.229-17-2.229-36.344 0-65.808 29.463-65.808 65.807s29.463 65.807 65.808 65.807c5.88 0 11.576-.782 17-2.229-28.103-7.495-48.808-33.113-48.808-63.578z" fill="#ffd15b"/></g></g></g><g><path d="m295.975 326.914h-80c-4.142 0-7.5 3.358-7.5 7.5s3.358 7.5 7.5 7.5h80c4.143 0 7.5-3.358 7.5-7.5s-3.358-7.5-7.5-7.5z"/><path d="m490.508 398.138h-91.188v-36.437c5.703-4.404 9.387-11.303 9.387-19.05v-50.458c0-4.053-.423-8.007-1.212-11.829 28.182-4.046 52.139-24.408 60.148-52.294 1.143-3.981-1.157-8.136-5.139-9.279-3.979-1.144-8.135 1.157-9.279 5.138-7.133 24.838-30.174 42.185-56.031 42.185-32.151 0-58.308-26.156-58.308-58.307s26.156-58.308 58.308-58.308c26.463 0 49.647 17.851 56.381 43.411 1.056 4.006 5.16 6.398 9.164 5.342 4.005-1.055 6.396-5.158 5.342-9.163-2.113-8.019-5.513-15.433-9.943-22.047 21.447-3.019 40.469-15.261 52.181-34.039 2.128-3.409 2.236-7.715.282-11.238-1.963-3.539-5.692-5.737-9.734-5.737h-38.941c-6.072 0-12.036-2.514-16.36-6.897-4.171-4.228-6.425-9.708-6.348-15.431.163-11.979 10.043-21.725 22.024-21.725h39.624c4.042 0 7.773-2.199 9.736-5.738 1.953-3.522 1.845-7.828-.282-11.235-13.585-21.781-36.997-34.784-62.626-34.784-27.354 0-52.414 15.22-65.152 39.167h-159.542c-4.142 0-7.5 3.358-7.5 7.5s3.358 7.5 7.5 7.5h164.213c2.953 0 5.632-1.733 6.842-4.428 9.477-21.104 30.53-34.74 53.638-34.74 17.956 0 34.549 8.016 45.653 21.757h-32.106c-20.142 0-36.75 16.383-37.022 36.521-.133 9.768 3.656 19.062 10.668 26.168 7.124 7.221 16.979 11.363 27.038 11.363h31.423c-11.104 13.74-27.697 21.757-45.654 21.757-.716 0-1.428-.026-2.14-.052-11.023-9.668-24.89-16.005-39.956-17.739-4.733-4.849-8.67-10.554-11.541-16.948-1.21-2.694-3.889-4.428-6.842-4.428h-242.315c1.726-6.251 2.668-12.824 2.668-19.616s-.942-13.365-2.668-19.616h43.101c4.142 0 7.5-3.358 7.5-7.5s-3.358-7.5-7.5-7.5h-49.082c-12.423-23.281-36.954-39.167-65.134-39.167-40.685.001-73.784 33.1-73.784 73.785 0 40.684 33.099 73.783 73.784 73.783 28.18 0 52.711-15.886 65.134-39.167h243.622c1.227 2.306 2.579 4.521 4.027 6.657-19.936 2.91-37.289 13.875-48.651 29.474-6.56-3.261-13.931-5.063-21.673-5.063h-120.486c-21.44 0-40.075 13.77-46.371 34.266l-4.003 13.03c-3.698-1.389-7.639-2.129-11.631-2.129h-13.02c-14.486 0-26.272 11.786-26.272 26.272 0 12.594 8.909 23.141 20.754 25.684-7.474 9.842-11.92 22.102-11.92 35.385v50.458c0 7.746 3.683 14.645 9.386 19.049v38.195c0 7.292 5.933 13.226 13.226 13.226h32.717c7.293 0 13.226-5.933 13.226-13.226v-33.181h168.301v31.423h-18.202c-6.436 0-12.792 1.688-18.383 4.88l-14.055 8.028-15.767-10.621c-2.223-1.496-4.813-2.287-7.491-2.287h-8.404c-7.396 0-13.413 6.017-13.413 13.413v10.162h-87.435c-4.142 0-7.5 3.358-7.5 7.5s3.358 7.5 7.5 7.5h87.435v16.493h-165.241c-1.729 0-3.419.328-5.023.976l-29.068 11.739-30.103-10.535v-20.852l30.103-10.536 29.069 11.739c1.604.648 3.293.976 5.022.976h42.806c4.142 0 7.5-3.358 7.5-7.5s-3.358-7.5-7.5-7.5h-42.498l-29.337-11.848c-3.021-1.22-6.377-1.299-9.453-.223l-31.73 11.105c-5.373 1.881-8.982 6.969-8.982 12.662v23.103c0 5.691 3.609 10.779 8.982 12.661l31.731 11.106c1.436.502 2.933.752 4.429.752 1.707 0 3.413-.326 5.023-.977l29.336-11.847h164.933v10.162c0 7.396 6.017 13.413 13.413 13.413h8.404c2.678 0 5.269-.791 7.494-2.289l15.764-10.619 14.056 8.028c5.59 3.192 11.946 4.88 18.382 4.88h168.56c11.851 0 21.492-9.642 21.492-21.492v-50.66c.001-11.85-9.641-21.492-21.491-21.492zm-416.724-245.353c-32.414 0-58.784-26.37-58.784-58.783 0-32.414 26.37-58.784 58.784-58.784 32.413 0 58.783 26.37 58.783 58.784 0 32.413-26.37 58.783-58.783 58.783zm207.901 313.275-15.917 10.722h-6.333v-63.644h6.333l15.917 10.722zm80.091-156.199c0-12.516 5.218-23.936 13.898-31.975 5.284 1.626 10.823 2.654 16.537 3.04.964 3.597 1.495 7.37 1.495 11.267v25.291h-31.93zm-198.051-111.505c4.349-14.158 17.222-23.67 32.032-23.67h120.486c5.011 0 9.791 1.102 14.099 3.096-4.135 9.171-6.457 19.329-6.457 30.025 0 9.061 1.664 17.737 4.683 25.755h-80.57c-1.031-18.498-16.402-33.232-35.153-33.232s-34.122 14.734-35.153 33.232h-15.766c-3.144 0-6.229.256-9.241.735zm69.211 35.206h-40.184c1.001-10.216 9.617-18.232 20.092-18.232s19.091 8.016 20.092 18.232zm-71.011 15h174.366c6.331 9.429 14.798 17.3 24.693 22.946-8.96 10.361-14.208 23.807-14.208 38.352v7.623h-9.053c-3.696 0-7.202-1.785-9.376-4.775-4.363-5.999-11.397-9.58-18.814-9.58h-107.116c-7.418 0-14.451 3.582-18.814 9.581-2.174 2.99-5.679 4.774-9.375 4.774h-9.002v-7.623c0-22.002-11.972-41.513-30.717-51.574 7.496-6.074 17.036-9.724 27.416-9.724zm-11.701 61.299v7.623h-31.93v-25.291c0-8.098 2.225-15.683 6.085-22.19 15.657 6.931 25.845 22.339 25.845 39.858zm-40.764-78.736c0-6.215 5.057-11.271 11.272-11.271h13.02c2.533 0 4.966.519 7.217 1.5l-5.733 18.663c-1.438.739-2.844 1.529-4.21 2.38h-10.294c-6.215-.001-11.272-5.057-11.272-11.272zm47.39 166.997h-29.17v-31.407h29.169v31.407zm-29.492-46.407c-4.998 0-9.063-4.066-9.063-9.063v-10.167h55.932c8.48 0 16.52-4.094 21.507-10.952 1.55-2.131 4.048-3.403 6.683-3.403h107.117c2.635 0 5.134 1.272 6.684 3.403 4.987 6.858 13.027 10.952 21.507 10.952h55.982v10.167c0 4.998-4.065 9.063-9.063 9.063zm256.961 15v31.407h-29.169v-31.407zm76.02 110.067h-138.391c-3.831 0-7.615-1.005-10.943-2.905l-14.32-8.179v-41.475l14.319-8.179c3.329-1.9 7.113-2.905 10.944-2.905h138.391zm36.661-6.492c0 3.58-2.912 6.492-6.492 6.492h-15.169v-63.644h15.169c3.58 0 6.492 2.913 6.492 6.492z"/><path d="m437.092 451.65h-109.983c-4.143 0-7.5 3.358-7.5 7.5s3.357 7.5 7.5 7.5h109.982c4.143 0 7.5-3.358 7.5-7.5s-3.357-7.5-7.499-7.5z"/><path d="m319.609 430.769c0 4.142 3.357 7.5 7.5 7.5h109.982c4.143 0 7.5-3.358 7.5-7.5s-3.357-7.5-7.5-7.5h-109.982c-4.142 0-7.5 3.357-7.5 7.5z"/><path d="m73.784 55.168c-21.413 0-38.834 17.421-38.834 38.834s17.421 38.834 38.834 38.834 38.833-17.421 38.833-38.834-17.42-38.834-38.833-38.834zm0 62.668c-13.142 0-23.834-10.692-23.834-23.834s10.692-23.834 23.834-23.834 23.833 10.692 23.833 23.834-10.692 23.834-23.833 23.834z"/><path d="m383.588 250.532c1.303.902 2.792 1.335 4.265 1.335 2.378 0 4.716-1.127 6.172-3.229l25.328-36.56c1.589-2.293 1.773-5.279.479-7.75-1.294-2.472-3.854-4.021-6.644-4.021h-17.67l17.174-24.789c2.358-3.405 1.511-8.077-1.894-10.436-3.406-2.358-8.077-1.511-10.437 1.894l-25.329 36.56c-1.589 2.293-1.773 5.279-.479 7.75 1.294 2.472 3.854 4.021 6.644 4.021h17.67l-17.173 24.789c-2.358 3.405-1.51 8.077 1.894 10.436z"/></g></g></svg>