<svg id="Layer_1" enable-background="new 0 0 136 136" height="512" viewBox="0 0 136 136" width="512" xmlns="http://www.w3.org/2000/svg"><g><path d="m67.99 132c-35.28 0-63.99-28.71-63.99-64.01 0-35.28 28.71-63.99 63.99-63.99 35.3 0 64.01 28.71 64.01 63.99 0 35.3-28.71 64.01-64.01 64.01z" fill="#434c6d"/><path d="m128.24 67.99c0 33.28-26.98 60.24-60.24 60.24s-60.24-26.96-60.24-60.24c0-33.27 26.96-60.23 60.23-60.23s60.25 26.97 60.25 60.23z" fill="#fbc592"/><path d="m127.95 61.74-.02.08-14.73 41.22c-.93 2.61-3.42 4.36-6.18 4.36-.75 0-1.5-.13-2.2-.39l-7.72-2.76v4.17l15.47.11c-11 11.99-27 19.4-44.57 19.4-17.68 0-33.76-7.53-44.78-19.65l.19-28.67-3.29 3.21v-17.36l16.77-16.34-5.71-1.89c-1.97.75-4.1 1.17-6.33 1.17-4.61 0-8.82-1.75-11.98-4.64 4.89-11.14 13.07-20.51 23.3-26.89 3.95 3.25 6.48 8.2 6.48 13.72 0 2.23-.41 4.37-1.17 6.33l1.95 5.84 7.6-7.42 19.13 18.64 8.62-8.56 3.3 3.28 2.41-6.75c.93-2.61 3.42-4.36 6.18-4.36.75 0 1.5.13 2.21.39l32.49 11.59c.02.01.3.97.3.97 1.13 3.53 1.88 7.14 2.21 10.86z" fill="#edb485"/><g><g><g><path d="m125.75 56.7-16.09 45.07c-.52 1.46-2.12 2.22-3.58 1.7l-32.45-11.59c-1.46-.52-2.22-2.12-1.7-3.58l16.09-45.07c.52-1.46 2.12-2.22 3.58-1.7l32.44 11.58c1.47.53 2.23 2.14 1.71 3.59z" fill="#fff"/></g></g><g><g><path d="m107.02 104.1c-.37 0-.74-.06-1.1-.19l-32.44-11.59c-1.7-.61-2.59-2.48-1.98-4.18l16.09-45.07c.61-1.7 2.48-2.59 4.18-1.98l32.44 11.58c1.7.61 2.59 2.48 1.98 3.88l-16.09 45.07c-.29 1.12-.89 1.78-1.68 2.16-.45.22-.92.32-1.4.32zm-16.35-62.26c-.96 0-1.86.6-2.2 1.55l-16.09 45.07c-.43 1.21.2 2.55 1.41 2.98l32.44 11.58c.59.21 1.22.18 1.78-.09s.99-.74 1.2-1.32l16.09-45.07c.43-1.21-.2-2.55-1.41-2.98l-32.44-11.58c-.26-.09-.52-.14-.78-.14z" fill="#191d26"/></g></g><g><g><path d="m114.45 70.51c-.05 0-.11-.01-.16-.03l-26.12-9.33c-.24-.09-.37-.36-.28-.6.09-.25.36-.37.6-.28l26.12 9.33c.24.09.37.36.28.6-.07.19-.25.31-.44.31z" fill="#191d26"/></g></g><g><g><path d="m112.78 75.16c-.05 0-.11-.01-.16-.03l-26.12-9.33c-.24-.09-.37-.36-.28-.6.09-.25.36-.37.6-.28l26.12 9.33c.24.09.37.36.28.6-.06.19-.24.31-.44.31z" fill="#191d26"/></g></g><g><g><path d="m111.12 79.81c-.05 0-.11-.01-.16-.03l-26.12-9.33c-.24-.09-.37-.36-.28-.6.09-.25.36-.37.6-.28l26.12 9.33c.24.09.37.36.28.6-.06.19-.24.31-.44.31z" fill="#191d26"/></g></g><g><g><path d="m109.46 84.47c-.05 0-.11-.01-.16-.03l-26.12-9.33c-.24-.09-.37-.36-.28-.6.09-.25.36-.38.6-.28l26.12 9.33c.24.09.37.36.28.6-.06.19-.25.31-.44.31z" fill="#191d26"/></g></g><g><g><path d="m107.8 89.12c-.05 0-.11-.01-.16-.03l-26.12-9.33c-.24-.09-.37-.36-.28-.6.09-.25.36-.37.6-.28l26.12 9.33c.24.09.37.36.28.6-.07.19-.25.31-.44.31z" fill="#191d26"/></g></g><g><g><path d="m108.88 84.12c-.06.1-.16.18-.27.2l-23.23 6.18c-.04.01-.08.02-.11.02-.19 0-.37-.13-.42-.33l-2.26-8.5c-.03-.11-.02-.23.04-.33s.16-.18.26-.2l23.24-6.18c.23-.06.48.07.54.31l2.26 8.5c.02.11 0 .22-.05.33z" fill="#f66"/></g></g><g><g><g><path d="m85.26 91c-.41 0-.77-.28-.88-.67l-2.27-8.51c-.06-.25-.03-.49.09-.69.14-.22.34-.37.56-.42l23.24-6.19c.23-.06.49-.03.7.1.21.12.36.32.42.55l2.26 8.5c.05.23.03.46-.08.67-.01.01-.01.03-.02.04-.13.21-.34.36-.56.41l-23.22 6.18c-.07.01-.16.03-.24.03zm20.94-15.6-23.2 6.21 2.29 8.46 23.17-6.2z" fill="#191d26"/></g></g></g><g><g><path d="m104.03 96.67c-.42 0-.86-.13-1.27-.38-.57-.36-.98-.89-1.34-1.36-.33-.43-.67-.87-1.1-1.14-.8-.5-2-.32-2.61.41-.17.2-.46.23-.66.06s-.23-.46-.06-.66c.91-1.09 2.63-1.36 3.83-.6.57.36.98.9 1.34 1.37.33.43.67.87 1.1 1.14.41.26.88.31 1.19.14.15-.08.27-.26.31-.44.01-.08.02-.22-.06-.33-.17-.2-.14-.5.05-.66.2-.17.5-.15.66.05.25.29.35.7.27 1.11-.09.47-.38.88-.78 1.1-.26.12-.56.19-.87.19z" fill="#191d26"/></g></g></g><g><g><g><g><path d="m74.86 70.69v41.53h-47.69v-41.53l23.84-23.23z" fill="#c99f97"/></g><g><path d="m75.18 70.35-23.84-23.23c-.19-.18-.48-.18-.66 0l-23.84 23.23c-.08.09-.14.22-.14.34v41.15c.3.29.6.57.91.86h47.26c.25 0 .47-.21.47-.47v-41.54c-.01-.12-.06-.25-.16-.34zm-.79 41.4h-46.75v-40.86l23.38-22.77 23.38 22.77v40.86z" fill="#191d26"/></g><g><path d="m78.15 67.05-27.14-26.44-27.13 26.44v6.85l27.13-26.44 27.14 26.44z" fill="#434c6d"/></g><g><path d="m78.15 74.37c-.12 0-.24-.05-.33-.13l-26.81-26.12-26.81 26.12c-.14.13-.34.17-.51.1s-.29-.24-.29-.43v-6.85c0-.13.05-.25.14-.34l27.14-26.44c.18-.18.47-.18.66 0l27.14 26.44c.09.09.14.21.14.34v6.85c0 .19-.11.36-.29.43-.05.02-.12.03-.18.03zm-27.14-27.38c.12 0 .24.04.33.13l26.34 25.66v-5.54l-26.67-25.98-26.66 25.99v5.54l26.34-25.66c.09-.1.2-.14.32-.14z" fill="#191d26"/></g><g><g><path d="m32.05 82.77h11.92v22.99h-11.92z" fill="#bf7460"/></g><g opacity=".1"><path d="m43.62 85.6h.34v-2.83h-11.91v22.99h2.81v-11.39c-.01-4.85 3.92-8.77 8.76-8.77z"/></g><g><path d="m43.97 106.22h-11.92c-.26 0-.47-.21-.47-.47v-22.98c0-.26.21-.47.47-.47h11.92c.26 0 .47.21.47.47v22.99c0 .25-.21.46-.47.46zm-11.45-.94h10.98v-22.04h-10.98z" fill="#191d26"/></g><g><path d="m38.01 106.22c-.26 0-.47-.21-.47-.47v-22.98c0-.26.21-.47.47-.47s.47.21.47.47v22.99c0 .25-.21.46-.47.46z" fill="#191d26"/></g><g><path d="m43.97 90.75h-11.92c-.26 0-.47-.21-.47-.47s.21-.47.47-.47h11.92c.26 0 .47.21.47.47s-.21.47-.47.47z" fill="#191d26"/></g><g><path d="m43.97 98.71h-11.92c-.26 0-.47-.21-.47-.47s.21-.47.47-.47h11.92c.26 0 .47.21.47.47s-.21.47-.47.47z" fill="#191d26"/></g></g><g><g><path d="m48.13 82.77h11.92v22.99h-11.92z" fill="#bf7460"/></g><g opacity=".1"><path d="m59.71 85.6h.34v-2.83h-11.92v22.99h2.81v-11.39c0-4.85 3.93-8.77 8.77-8.77z"/></g><g><path d="m60.06 106.22h-11.93c-.26 0-.47-.21-.47-.47v-22.98c0-.26.21-.47.47-.47h11.92c.26 0 .47.21.47.47v22.99c.01.25-.2.46-.46.46zm-11.46-.94h10.98v-22.04h-10.98z" fill="#191d26"/></g><g><path d="m54.1 106.22c-.26 0-.47-.21-.47-.47v-22.98c0-.26.21-.47.47-.47s.47.21.47.47v22.99c0 .25-.21.46-.47.46z" fill="#191d26"/></g><g><path d="m60.06 90.75h-11.93c-.26 0-.47-.21-.47-.47s.21-.47.47-.47h11.92c.26 0 .47.21.47.47s-.2.47-.46.47z" fill="#191d26"/></g><g><path d="m60.06 98.71h-11.93c-.26 0-.47-.21-.47-.47s.21-.47.47-.47h11.92c.26 0 .47.21.47.47s-.2.47-.46.47z" fill="#191d26"/></g></g><g><path d="m58.6 68.17c0 4.19-3.4 7.59-7.59 7.59-4.2 0-7.59-3.4-7.59-7.59 0-4.2 3.4-7.59 7.59-7.59 4.2 0 7.59 3.39 7.59 7.59z" fill="#fff"/></g><g opacity=".1"><path d="m57.7 64.56c-1.08-.58-2.31-.91-3.62-.91-4.19 0-7.59 3.4-7.59 7.59 0 1.31.33 2.54.91 3.61-2.37-1.29-3.98-3.8-3.98-6.68 0-4.2 3.4-7.59 7.6-7.59 2.89 0 5.39 1.61 6.68 3.98z"/></g><g><path d="m51.02 76.24c-4.45 0-8.06-3.62-8.06-8.06 0-4.45 3.62-8.07 8.06-8.07s8.06 3.62 8.06 8.07c-.01 4.44-3.62 8.06-8.06 8.06zm0-15.19c-3.93 0-7.12 3.2-7.12 7.12 0 3.93 3.2 7.12 7.12 7.12s7.12-3.2 7.12-7.12c-.01-3.93-3.2-7.12-7.12-7.12z" fill="#191d26"/></g><g><path d="m51.02 76.24c-.26 0-.47-.21-.47-.47v-15.19c0-.26.21-.47.47-.47s.47.21.47.47v15.19c0 .25-.21.47-.47.47z" fill="#191d26"/></g><g><path d="m58.61 68.64h-15.19c-.26 0-.47-.21-.47-.47s.21-.47.47-.47h15.19c.26 0 .47.21.47.47s-.21.47-.47.47z" fill="#191d26"/></g></g><g><g><path d="m93.33 70.69v41.53h-29.11v-41.53l14.55-14.43z" fill="#dbb5ac"/></g><g><path d="m93.33 112.69h-29.11c-.26 0-.47-.21-.47-.47v-41.53c0-.13.05-.25.14-.33l14.55-14.43c.18-.18.48-.18.66 0l14.55 14.43c.09.09.14.21.14.33v41.53c.01.26-.2.47-.46.47zm-28.64-.94h28.17v-40.86l-14.09-13.97-14.08 13.97z" fill="#191d26"/></g><g><path d="m96.56 68.38-17.79-17.64-17.78 17.64v5.52l17.78-17.64 17.79 17.64z" fill="#899abf"/></g><g><path d="m96.56 74.37c-.12 0-.24-.05-.33-.14l-17.46-17.31-17.45 17.31c-.14.13-.34.17-.51.1-.18-.07-.29-.24-.29-.43v-5.52c0-.13.05-.25.14-.33l17.78-17.65c.18-.18.48-.18.66 0l17.79 17.64c.09.09.14.21.14.33v5.52c0 .19-.11.36-.29.43-.06.04-.12.05-.18.05zm-17.79-18.58c.12 0 .24.05.33.14l16.99 16.85v-4.2l-17.32-17.18-17.31 17.17v4.2l16.99-16.85c.08-.09.2-.13.32-.13z" fill="#191d26"/></g><g><path d="m88.66 83.78v28.44h-19.77v-28.44c0-5.46 4.43-9.89 9.89-9.89 5.46.01 9.88 4.43 9.88 9.89z" fill="#434c6d"/></g><g><path d="m71.97 88.42h13.6v23.77h-13.6z" fill="#e8edee"/></g><g><path d="m85.58 112.66h-13.6c-.26 0-.47-.21-.47-.47v-23.77c0-.26.21-.47.47-.47h13.6c.26 0 .47.21.47.47v23.77c0 .26-.21.47-.47.47zm-13.14-.94h12.66v-22.83h-12.66z" fill="#191d26"/></g><g opacity=".1"><path d="m88.28 81.08c-1.22-4.32-5.3-7.43-10.06-7.17-5.29.29-9.33 4.85-9.33 10.15v28.17h6.13v-17.88c0-7.33 5.94-13.27 13.26-13.27z"/></g><g><path d="m88.66 112.7h-19.77c-.26 0-.47-.21-.47-.47v-28.45c0-5.71 4.65-10.36 10.36-10.36s10.36 4.65 10.36 10.36v28.44c-.01.27-.22.48-.48.48zm-19.3-.95h18.83v-27.97c0-5.19-4.22-9.42-9.42-9.42-5.19 0-9.42 4.22-9.42 9.42v27.97z" fill="#191d26"/></g><g><g><path d="m76.13 100.3c0 .64-.52 1.16-1.16 1.16s-1.16-.52-1.16-1.16.52-1.16 1.16-1.16c.65 0 1.16.52 1.16 1.16z" fill="#bf7460"/></g><g><path d="m74.97 101.94c-.9 0-1.63-.73-1.63-1.63s.73-1.63 1.63-1.63 1.63.73 1.63 1.63c.01.89-.73 1.63-1.63 1.63zm0-2.33c-.38 0-.69.31-.69.69s.31.69.69.69.69-.31.69-.69-.31-.69-.69-.69z" fill="#191d26"/></g></g></g></g><g><path d="m108.93 112.19c-10.74 9.96-25.13 16.05-40.94 16.05s-30.19-6.09-40.93-16.05z" fill="#24ae5f"/></g><g><path d="m26.56 111.72c.16.16.33.31.5.47s.34.32.52.47h80.84c.18-.15.35-.31.52-.47s.34-.31.5-.47z" fill="#191d26"/></g></g><g><g><path d="m36.9 35.13 3.75 11.28-11.28-3.75z" fill="#48a0dc"/></g><g><path d="m40.65 46.88c-.05 0-.1-.01-.15-.02l-11.27-3.76c-.15-.05-.27-.18-.31-.34s.01-.33.13-.44l7.53-7.53c.12-.11.28-.17.44-.13s.29.15.34.31l3.75 11.28c.06.17.01.36-.11.48-.1.11-.22.15-.35.15zm-10.41-4.43 9.67 3.22-3.22-9.67z" fill="#191d26"/></g><g><path d="m38.86 30.58c0 7.76-6.29 14.05-14.03 14.05-7.76 0-14.05-6.29-14.05-14.05s6.29-14.05 14.05-14.05c7.74 0 14.03 6.29 14.03 14.05z" fill="#48a0dc"/></g><g><path d="m24.83 45.1c-8.01 0-14.52-6.51-14.52-14.52s6.51-14.52 14.52-14.52c8 0 14.51 6.51 14.51 14.52s-6.51 14.52-14.51 14.52zm0-28.09c-7.49 0-13.58 6.09-13.58 13.58s6.09 13.58 13.58 13.58c7.48 0 13.56-6.09 13.56-13.58s-6.08-13.58-13.56-13.58z" fill="#191d26"/></g></g></g></svg>