<svg id="_x33_0" enable-background="new 0 0 64 64" height="512" viewBox="0 0 64 64" width="512" xmlns="http://www.w3.org/2000/svg"><g><g><g><path d="m62 58v3c0 .55-.45 1-1 1h-5v-4z" fill="#ffc729"/></g><g><path d="m56 50h6v4h-6z" fill="#ffc729"/></g><g><path d="m52 42h10v4h-10z" fill="#ffc729"/></g><g><path d="m2 50h10v4h-10z" fill="#ffc729"/></g><g><path d="m16 42v4h-4-6v-4z" fill="#ffc729"/></g><g><path d="m52 39c0-.55.45-1 1-1h1 7c.55 0 1 .45 1 1v3h-10z" fill="#fcd770"/></g><g><path d="m62 46v4h-6-4v-4z" fill="#fcd770"/></g><g><path d="m56 54h6v4h-6z" fill="#fcd770"/></g><g><path d="m12 54v4h-9c-.55 0-1-.45-1-1v-3z" fill="#fcd770"/></g><g><path d="m12 46v4h-10v-3c0-.55.45-1 1-1h3z" fill="#fcd770"/></g><g><path d="m16 39.1v2.9h-10v-3c0-.55.45-1 1-1h3 5c.55 0 1 .45 1 1.1z" fill="#fcd770"/></g><g><path d="m56 58v4h-23c-.55 0-1-.45-1-1v-3h4 8 8z" fill="#a0d468"/></g><g><path d="m32 54v4h-20v-4h4 8z" fill="#a0d468"/></g><g><path d="m52 50c0 2.21 1.79 4 4 4-2.21 0-4 1.79-4 4h-8c2.21 0 4-1.79 4-4s-1.79-4-4-4z" fill="#b4dd7f"/></g><g><path d="m42 50h2c-2.21 0-4 1.79-4 4s1.79 4 4 4h-8c0-2.21-1.79-4-4-4 2.21 0 4-1.79 4-4z" fill="#b4dd7f"/></g><g><path d="m24 46c-2.21 0-4 1.79-4 4s1.79 4 4 4h-8c0-2.21-1.79-4-4-4 2.21 0 4-1.79 4-4h6z" fill="#b4dd7f"/></g><g><path d="m36 50h-3c-.55 0-1 .45-1 1v3h-8c2.21 0 4-1.79 4-4s-1.79-4-4-4h8c0 2.21 1.79 4 4 4z" fill="#b4dd7f"/></g><g><path d="m56 50v4c-2.21 0-4-1.79-4-4z" fill="#a0d468"/></g><g><path d="m56 54v4h-4c0-2.21 1.79-4 4-4z" fill="#a0d468"/></g><g><path d="m32 54c2.21 0 4 1.79 4 4h-4z" fill="#a0d468"/></g><g><path d="m33 50h3c0 2.21-1.79 4-4 4v-3c0-.55.45-1 1-1z" fill="#a0d468"/></g><g><path d="m36 47v3c-2.21 0-4-1.79-4-4h3c.55 0 1 .45 1 1z" fill="#a0d468"/></g><g><path d="m16 54h-4v-4c2.21 0 4 1.79 4 4z" fill="#a0d468"/></g><g><path d="m12 46h4c0 2.21-1.79 4-4 4z" fill="#a0d468"/></g><g><circle cx="44" cy="54" fill="#fcd770" r="4"/></g><g><circle cx="24" cy="50" fill="#fcd770" r="4"/></g><g><path d="m46 30c0 2.74 1.37 5.15 3.47 6.59-1.89.98-3.93 1.7-6.1 2.14l-1.37.27v11h-6v-3c0-.55-.45-1-1-1h-3-8-2v-7l-1.37-.27c-2.17-.44-4.21-1.16-6.1-2.14.41-.27.78-.59 1.13-.93 1.44-1.45 2.34-3.45 2.34-5.66 0-.1 0-.21-.01-.31h.01c.94.3 1.92.5 2.94.6l4.3.43 1.76 5.28 5-3 5 3 1.76-5.28 4.3-.43c1.02-.1 2-.3 2.94-.6v.2z" fill="#ff826e"/></g><g><path d="m38.76 30.72-1.76 5.28-5-3 4-2z" fill="#fc6e51"/></g><g><path d="m32 33-5 3-1.76-5.28 2.76.28z" fill="#fc6e51"/></g><g><path d="m57 12v6h-3c-.83 0-1.58-.34-2.12-.88-.1-.1-.19-.21-.28-.32-.37-.5-.6-1.12-.6-1.8 0-.79.31-1.51.8-2.04.55-.59 1.33-.96 2.2-.96z" fill="#ffeaa7"/></g><g><path d="m13 15c0 .68-.23 1.3-.6 1.8-.09.11-.18.22-.28.32-.54.54-1.29.88-2.12.88h-3v-6h3c.87 0 1.65.37 2.2.96.49.53.8 1.25.8 2.04z" fill="#ffeaa7"/></g><g><path d="m54 4v1.63c0 .12 0 .25-.01.37-.05 2.08-.61 4.12-1.63 5.94l-.56 1.02-1.72-1.8c-1.34-1.38-2.08-3.23-2.08-5.16 0 0 1-2 6-2z" fill="#d3a06c"/></g><g><path d="m10 4c5 0 6 2 6 2 0 1.93-.74 3.78-2.08 5.16l-1.72 1.8-.56-1.02c-1.02-1.82-1.58-3.86-1.63-5.94-.01-.12-.01-.25-.01-.37z" fill="#d3a06c"/></g><g><path d="m11.64 11.94.56 1.02c-.55-.59-1.33-.96-2.2-.96h-3l-2-4c1.28-1.28 3.02-2 4.83-2h.18c.05 2.08.61 4.12 1.63 5.94z" fill="#cf9e76"/></g><g><path d="m52.36 11.94c1.02-1.82 1.58-3.86 1.63-5.94h.18c1.81 0 3.55.72 4.83 2l-2 4h-3c-.87 0-1.65.37-2.2.96z" fill="#cf9e76"/></g><g><path d="m54 18h3l4.16 8.31c.55 1.11.84 2.34.84 3.58v.11c0 2.21-.9 4.21-2.34 5.66-1.45 1.44-3.45 2.34-5.66 2.34-1.68 0-3.24-.52-4.53-1.41-2.1-1.44-3.47-3.85-3.47-6.59v-.11c0-.07 0-.13 0-.2.03-1.17.32-2.33.84-3.38l4.76-9.51c.09.11.18.22.28.32.54.54 1.29.88 2.12.88z" fill="#cf9e76"/></g><g><path d="m10 18c.83 0 1.58-.34 2.12-.88.1-.1.19-.21.28-.32l4.71 9.41c.53 1.09.84 2.27.88 3.48.01.1.01.21.01.31 0 2.21-.9 4.21-2.34 5.66-.35.34-.72.66-1.13.93-1.29.89-2.85 1.41-4.53 1.41-2.21 0-4.21-.9-5.66-2.34-1.44-1.45-2.34-3.45-2.34-5.66 0-1.32.31-2.61.89-3.79l4.11-8.21z" fill="#cf9e76"/></g><g><path d="m43.81 13.97-.6 3c-.55-.6-1.34-.97-2.21-.97h-1v-2c0-1.1-.9-2-2-2h-3-2c-1.63 0-3.09-.79-4-2h-1c-2.21 0-4 1.79-4 4v2h-1c-.87 0-1.66.37-2.21.97l-.67-3.36c-.08-.4-.12-.82-.12-1.23 0-1.06.26-2.08.74-2.98.49-.9 1.19-1.68 2.07-2.27l.19-.13c.6-1.51 1.64-2.76 2.93-3.63s2.83-1.37 4.46-1.37h3.6c5.53 0 10.01 4.48 10.01 10.01 0 .66-.07 1.32-.19 1.96z" fill="#656d78"/></g><g><path d="m35.37 27.84.63 3.16-4 2-4-2 .63-3.16c.44.11.9.16 1.37.16h4c.47 0 .93-.05 1.37-.16z" fill="#f0d0b4"/></g><g><path d="m41 16c.87 0 1.66.37 2.21.97.49.53.79 1.24.79 2.03 0 .83-.34 1.58-.88 2.12s-1.29.88-2.12.88h-1v-6z" fill="#f0d0b4"/></g><g><path d="m40 16v6c0 2.84-1.98 5.22-4.63 5.84-.44.11-.9.16-1.37.16h-4c-.47 0-.93-.05-1.37-.16-2.65-.62-4.63-3-4.63-5.84v-6-2c0-2.21 1.79-4 4-4h1c.91 1.21 2.37 2 4 2h2 3c1.1 0 2 .9 2 2z" fill="#f0d0b4"/></g><g><path d="m24 16v6h-1c-.83 0-1.58-.34-2.12-.88s-.88-1.29-.88-2.12c0-.79.3-1.5.79-2.03.55-.6 1.34-.97 2.21-.97z" fill="#f0d0b4"/></g><g><path d="m28 20h8c0 2.21-1.79 4-4 4-1.1 0-2.1-.45-2.83-1.17-.72-.73-1.17-1.73-1.17-2.83z" fill="#ff826e"/></g></g><g><path d="m11 35v-2h2v-3c0-1.654-1.346-3-3-3-.551 0-1-.449-1-1v-1h1c.551 0 1 .449 1 1v1h2v-1c0-1.302-.839-2.402-2-2.816v-2.184h-2v2h-2v3c0 1.654 1.346 3 3 3 .551 0 1 .449 1 1v1h-1c-.551 0-1-.449-1-1v-1h-2v1c0 1.302.839 2.402 2 2.816v2.184z"/><circle cx="28" cy="16" r="1"/><circle cx="36" cy="16" r="1"/><path d="m37 20v-1h-10v1c0 2.757 2.243 5 5 5s5-2.243 5-5zm-7.829 1h5.657c-.413 1.164-1.525 2-2.829 2s-2.415-.836-2.828-2z"/><path d="m55 23.184v-2.184h-2v2h-2v3c0 1.654 1.346 3 3 3 .551 0 1 .449 1 1v1h-1c-.552 0-1-.449-1-1v-1h-2v1c0 1.302.839 2.402 2 2.816v2.184h2v-2h2v-3c0-1.654-1.346-3-3-3-.552 0-1-.449-1-1v-1h1c.551 0 1 .449 1 1v1h2v-1c0-1.302-.839-2.402-2-2.816z"/><path d="m63 30v-.111c0-1.39-.329-2.782-.95-4.025l-4.05-8.1v-5.527l2.217-4.434-.51-.51c-1.281-1.281-2.929-2.062-4.707-2.248v-2.045h-1c-5.46 0-6.764 2.292-6.895 2.553l-.105.211v.236c0 2.194.836 4.274 2.355 5.857l1.163 1.213c-.32.575-.518 1.227-.518 1.93 0 .664.178 1.281.465 1.832l-4.515 9.031c-.474.948-.775 1.983-.892 3.038-.686.181-1.384.326-2.093.397l-6.162.616-.279-1.393c2.315-.899 4.032-2.992 4.396-5.522h.08c2.206 0 4-1.794 4-4 0-.849-.27-1.634-.724-2.283l.51-2.549c.142-.707.214-1.434.214-2.158 0-6.071-4.938-11.009-11.009-11.009h-3.606c-3.576 0-6.757 2.083-8.19 5.335-2.002 1.363-3.195 3.615-3.195 6.04 0 .48.048.962.142 1.433l.582 2.909c-.454.649-.724 1.434-.724 2.283 0 2.206 1.794 4 4 4h.08c.364 2.53 2.081 4.622 4.396 5.522l-.279 1.393-6.162-.616c-.711-.071-1.412-.216-2.1-.398-.128-1.089-.445-2.156-.935-3.136l-4.465-8.931c.287-.553.465-1.17.465-1.834 0-.703-.198-1.355-.518-1.93l1.163-1.213c1.519-1.583 2.355-3.663 2.355-5.857v-.236l-.105-.211c-.131-.261-1.435-2.553-6.895-2.553h-1v2.045c-1.778.186-3.426.967-4.707 2.248l-.51.51 2.217 4.433v5.527l-4 8c-.654 1.309-1 2.774-1 4.237 0 3.301 1.792 6.185 4.45 7.752-.277.343-.45.773-.45 1.248v6h-2c-1.103 0-2 .897-2 2v10c0 1.103.897 2 2 2h28v2c0 1.103.897 2 2 2h28c1.103 0 2-.897 2-2v-22c0-1.103-.897-2-2-2h-1.356c2.044-1.651 3.356-4.174 3.356-7zm-6.618-19h-2.382c-.027 0-.052.008-.079.008.523-1.259.859-2.59.999-3.946 1.04.133 2.019.527 2.844 1.175zm-4.382 4c0-.147.018-.289.048-.427l.556-1.001c.361-.353.853-.572 1.396-.572h2v4h-2c-1.103 0-2-.897-2-2zm-2.992-8.673c.337-.341 1.388-1.132 3.992-1.297v.601c0 1.97-.49 3.922-1.417 5.659l-.784-.817c-1.085-1.13-1.714-2.592-1.791-4.146zm-19.085 26.753-2.369 1.421-.876-2.628 1.039.104zm6.359-1.103 1.039-.104-.876 2.628-2.369-1.421zm4.718-10.977v-4c1.103 0 2 .897 2 2s-.897 2-2 2zm-20-2c0-1.103.897-2 2-2v4c-1.103 0-2-.897-2-2zm2-5v1c-.538 0-1.05.11-1.52.304l-.377-1.888c-.068-.342-.103-.692-.103-1.041 0-1.779.883-3.43 2.363-4.416l.45-.3.116-.289c1.062-2.654 3.596-4.37 6.456-4.37h3.606c4.967 0 9.009 4.042 9.009 9.009 0 .593-.059 1.187-.175 1.767l-.306 1.528c-.469-.194-.981-.304-1.519-.304v-1c0-1.51-1.125-2.751-2.58-2.958.36-.6.58-1.293.58-2.042 0-2.206-1.794-4-4-4v2c1.103 0 2 .897 2 2s-.897 2-2 2h-2c-2.206 0-4-1.794-4-4h-2c0 .716.126 1.404.357 2.041-2.454.316-4.357 2.42-4.357 4.959zm2 8v-8c0-1.654 1.346-3 3-3h.532c1.099 1.227 2.695 2 4.468 2h5c.551 0 1 .449 1 1v8c0 2.757-2.243 5-5 5h-4c-2.757 0-5-2.243-5-5zm5 7h4c.194 0 .384-.014.574-.029l.295 1.476-2.869 1.435-2.87-1.435.295-1.476c.191.015.381.029.575.029zm-5.503 2.655 1.949 5.844 5.554-3.333 5.554 3.333 1.949-5.844 3.661-.366c.637-.064 1.267-.18 1.89-.321.225 2.092 1.167 3.972 2.578 5.386-1.429.618-2.923 1.085-4.46 1.392l-.172.034v-1.78h-2v13h-4v-2c0-1.103-.897-2-2-2h-12v-9h-2v1.78l-.173-.035c-1.536-.307-3.03-.774-4.459-1.392 1.411-1.414 2.354-3.294 2.578-5.386.623.142 1.253.258 1.89.321zm-9.681 15.345c-.302.847-.969 1.514-1.816 1.816v-1.816zm-3.816 6h-8v-2h8zm2-1.816c.847.302 1.514.969 1.816 1.816h-1.816zm3.892 1.816c-.249-1.218-.935-2.279-1.895-3 .96-.721 1.646-1.782 1.895-3h3.134c-.635.838-1.026 1.87-1.026 3s.391 2.162 1.026 3zm.074-14.266c1.128.407 2.286.736 3.468.973l.566.113v5.18h-4v-5.903c0-.125-.015-.245-.034-.363zm4.034 11.266c0-1.654 1.346-3 3-3s3 1.346 3 3-1.346 3-3 3-3-1.346-3-3zm6.974-3h3.127c.168.824.556 1.56 1.075 2.182-.692.315-1.176 1.009-1.176 1.818v2h-3.026c.635-.838 1.026-1.87 1.026-3s-.391-2.162-1.026-3zm5.026 5.816v-1.816h1.816c-.302.847-.969 1.514-1.816 1.816zm2-4c-.847-.302-1.514-.969-1.816-1.816h1.816zm-2 6.368c.847.302 1.514.969 1.816 1.816h-1.816zm3.899 1.816c-.25-1.226-.96-2.278-1.93-3 .97-.722 1.68-1.774 1.93-3h3.127c-.635.838-1.026 1.87-1.026 3s.391 2.162 1.026 3zm4.101-3c0-1.654 1.346-3 3-3s3 1.346 3 3-1.346 3-3 3-3-1.346-3-3zm6.974-3h3.127c.25 1.226.96 2.278 1.93 3-.97.722-1.68 1.774-1.93 3h-3.127c.635-.838 1.026-1.87 1.026-3s-.391-2.162-1.026-3zm7.026 1.816c-.847-.302-1.514-.969-1.816-1.816h1.816zm0 2.368v1.816h-1.816c.302-.847.969-1.514 1.816-1.816zm2-.184h4v2h-4zm0-2v-2h4v2zm-4-4v-2h8v2zm0-4v-2h8v2zm-2-6v10h-8v-9.18l.565-.113c2.031-.406 3.99-1.08 5.841-1.981.524.313 1.08.573 1.665.776-.042.159-.071.325-.071.498zm-39.605-25.429.556 1.002c.031.138.049.28.049.427 0 1.103-.897 2-2 2h-2v-4h2c.543 0 1.035.219 1.395.571zm-.395-8.541c2.632.167 3.677.971 3.992 1.289-.076 1.557-.705 3.022-1.791 4.154l-.784.817c-.927-1.737-1.417-3.689-1.417-5.659zm-1.92 2.032c.14 1.356.476 2.687.999 3.946-.027-.001-.052-.008-.079-.008h-2.382l-1.381-2.763c.825-.648 1.804-1.042 2.843-1.175zm-6.08 22.938c0-1.154.273-2.31.789-3.342l3.829-7.658h2.382c.765 0 1.473-.227 2.082-.601l4.129 8.259c.516 1.032.789 2.188.789 3.342 0 3.86-3.14 7-7 7s-7-3.14-7-7zm7 9c.029 0 .057-.004.086-.004l4.892-.007c.005.007.022.041.022.108v1.903h-8v-2l2.919-.004c.027 0 .054.004.081.004zm-3 4h8v2h-8zm4 4v2h-8v-2zm-8 8h8v2h-8zm10 2v-2h18v2zm20 2h22v2h-22zm24 2v-2h4v2zm4-22v2h-8v-2zm-14-9v-.111c0-1.081.255-2.164.739-3.13l4.179-8.359c.609.373 1.317.6 2.082.6h2.382l3.879 7.758c.484.967.739 2.05.739 3.131v.111c0 3.86-3.14 7-7 7s-7-3.14-7-7z"/></g></g></svg>