<svg id="Capa_1" enable-background="new 0 0 512.1 512.1" height="512" viewBox="0 0 512.1 512.1" width="512" xmlns="http://www.w3.org/2000/svg"><g><g><g><path d="m240.8 192.65c-1.1-2.9-3.9-4.7-7-4.7s-5.8 1.9-7 4.7l-47.8 121.3c-1.5 3.9.4 8.2 4.2 9.7.9.4 1.8.5 2.8.5 3 0 5.8-1.8 7-4.7l15.2-38.5h51.4l14.5 36.7c1.5 3.9 5.9 5.7 9.7 4.2 3.9-1.5 5.7-5.9 4.2-9.7zm-26.7 73.3 19.8-50.2 19.8 50.2zm-44.7-70.6c0 4.1-3.4 7.5-7.5 7.5h-28.7v113.8c0 4.1-3.4 7.5-7.5 7.5s-7.5-3.4-7.5-7.5v-113.8h-28.8c-4.1 0-7.5-3.4-7.5-7.5s3.4-7.5 7.5-7.5h72.5c4.2 0 7.5 3.4 7.5 7.5zm257.4 117.2c2.3 3.4 1.4 8.1-2 10.4-1.3.9-2.7 1.3-4.2 1.3-2.4 0-4.8-1.2-6.2-3.3l-34.5-51.4-34.5 51.4c-1.4 2.2-3.8 3.3-6.2 3.3-1.4 0-2.9-.4-4.2-1.3-3.4-2.3-4.4-7-2-10.4l38-56.5-38-56.5c-2.3-3.4-1.4-8.1 2-10.4s8.1-1.4 10.4 2l34.5 51.4 34.5-51.4c2.3-3.4 7-4.4 10.4-2 3.4 2.3 4.4 7 2 10.4l-38 56.5z" fill="#616484"/><path d="m288 312.15c1.5 3.8-.4 8.2-4.2 9.7-3.9 1.5-8.2-.4-9.7-4.2l-14.5-36.7h-5.9v-55.9zm100.8-56.1 38-56.5c2.3-3.4 1.4-8.1-2-10.4s-8.1-1.4-10.4 2l-34.5 51.4-34.5-51.4c-2.3-3.4-7-4.4-10.4-2s-4.4 7-2 10.4l38 56.5-38 56.5c-2.3 3.4-1.4 8.1 2 10.4 1.3.9 2.7 1.3 4.2 1.3 2.4 0 4.8-1.2 6.2-3.3l34.5-51.4 34.5 51.4c1.5 2.2 3.8 3.3 6.2 3.3 1.4 0 2.9-.4 4.2-1.3 3.4-2.3 4.3-7 2-10.4z" fill="#424566"/></g><g><path d="m256 .05c-141.4 0-256 114.6-256 256s114.6 256 256 256 256-114.6 256-256-114.6-256-256-256zm0 54.2c43 0 82.8 13.5 115.5 36.4 3.4 2.4 3.8 7.2.9 10.1l-271.7 271.8c-2.9 2.9-7.7 2.5-10.1-.9-22.9-32.8-36.4-72.6-36.4-115.6 0-111.4 90.4-201.8 201.8-201.8zm0 403.5c-43 0-82.8-13.5-115.6-36.4-3.4-2.4-3.8-7.2-.9-10.1l271.8-271.8c2.9-2.9 7.7-2.5 10 .9 22.9 32.7 36.4 72.6 36.4 115.5.1 111.5-90.3 201.9-201.7 201.9z" fill="#ff4155"/><path d="m256 .05c-.8 0-1.6 0-2.4 0v54.2h2.4c43 0 82.8 13.5 115.5 36.4 3.4 2.4 3.8 7.1.9 10l-118.7 118.9v77.7l157.7-157.7c2.9-2.9 7.7-2.5 10 .9 22.9 32.7 36.4 72.5 36.4 115.5 0 111.4-90.4 201.8-201.8 201.8-.8 0-1.6 0-2.3 0v54.3h2.4c141.4 0 256-114.6 256-256-.1-141.4-114.7-256-256.1-256z" fill="#ef0061"/></g></g></g></svg>