<svg id="Layer_1" height="512" viewBox="0 0 256 256" width="512" xmlns="http://www.w3.org/2000/svg"><g><g><g><g><g><g><circle cx="202.531" cy="78.811" fill="#feb69f" r="14.173"/><path d="m190.604 162.698h30.012v-49.322c0-6.346-5.144-11.49-11.49-11.49-10.229 0-18.522 8.293-18.522 18.522z" fill="#f0c020"/><g><path d="m159.252 171.836v53.827h18.221v-44.899h34.011c5.044 0 9.138-4.094 9.138-9.138v-8.928h-52.259c-5.036.019-9.111 4.103-9.111 9.138z" fill="#afafaf"/></g><path d="m146.714 237.826h27.103c2.019 0 3.655-1.636 3.655-3.655v-8.507h-21.748c-5.478 0-10.112 3.624-11.634 8.604-.539 1.767.777 3.558 2.624 3.558z" fill="#7d7b79"/></g><g><path d="m186.211 186.144c0 2.972 2.409 5.381 5.381 5.381h45.038c2.672 0 4.932-1.955 5.327-4.592l10.349-70.01c.439-2.941-1.596-5.677-4.538-6.107-3.026-.418-5.673 1.667-6.107 4.538l-8.995 60.818c-.386 2.636-2.654 4.592-5.327 4.592h-35.747c-2.972 0-5.381 2.409-5.381 5.38z" fill="#72c2e9"/></g><path d="m224.867 191.525h9.75v46.301h-9.75z" fill="#efefef"/><path d="m224.867 191.525h9.75v8.122h-9.75z" fill="#afafaf"/><path d="m193.427 191.525h9.75v46.301h-9.75z" fill="#efefef"/><path d="m193.427 191.525h9.75v8.122h-9.75z" fill="#afafaf"/></g><g><g><circle cx="53.469" cy="78.811" fill="#feb69f" r="14.173"/><path d="m65.396 162.698h-30.012v-49.322c0-6.346 5.144-11.49 11.49-11.49 10.229 0 18.522 8.293 18.522 18.522z" fill="#fc5d3d"/><g><path d="m96.748 171.836v53.827h-18.221v-44.899h-34.011c-5.044 0-9.138-4.094-9.138-9.138v-8.928h52.259c5.036.019 9.111 4.103 9.111 9.138z" fill="#afafaf"/></g><path d="m109.286 237.826h-27.103c-2.019 0-3.655-1.636-3.655-3.655v-8.507h21.748c5.478 0 10.112 3.624 11.634 8.604.539 1.767-.777 3.558-2.624 3.558z" fill="#7d7b79"/></g><g><path d="m69.789 186.144c0 2.972-2.409 5.381-5.381 5.381h-45.038c-2.672 0-4.932-1.955-5.327-4.592l-10.349-70.01c-.439-2.941 1.596-5.677 4.538-6.107 3.026-.418 5.673 1.667 6.107 4.538l8.995 60.818c.386 2.636 2.654 4.592 5.327 4.592h35.747c2.972 0 5.381 2.409 5.381 5.38z" fill="#72c2e9"/></g><path d="m21.387 191.525h9.75v46.301h-9.75z" fill="#efefef"/><path d="m21.387 191.525h9.75v8.122h-9.75z" fill="#afafaf"/><path d="m52.827 191.525h9.75v46.301h-9.75z" fill="#efefef"/><path d="m52.827 191.525h9.75v8.122h-9.75z" fill="#afafaf"/></g></g><path d="m175.887 138.806v3.59c0 2.76-2.24 5-5 5h-85.8c-2.76 0-5-2.24-5-5v-3.59c0-2.76 2.24-5 5-5h85.8c2.76 0 5 2.24 5 5z" fill="#72c2e9"/><path d="m120.737 147.396h14.5v90.43h-14.5z" fill="#efefef"/><path d="m120.737 147.396h14.5v8.05h-14.5z" fill="#afafaf"/><g><g><path d="m159.977 115.2h-81.146l11.208-10.41c.611-.568.958-1.364.958-2.198v-22.859c0-2.761 2.239-5 5-5h63.979c2.761 0 5 2.239 5 5v30.467c.001 2.761-2.238 5-4.999 5z" fill="#fc5d3d"/></g><g><path d="m95.998 58.64h81.146l-11.208-10.41c-.611-.568-.958-1.364-.958-2.198v-22.858c0-2.761-2.239-5-5-5h-63.98c-2.761 0-5 2.239-5 5v30.466c0 2.762 2.238 5 5 5z" fill="#f0c020"/></g></g></g><g><g><path d="m28.109 61.191c-4.094-1.353-8.322-2.535-10.696-12.76-2.186 9.418-5.689 11.106-10.696 12.76 8.166 2.698 9.398 7.166 10.696 12.76 2.237-9.643 5.939-11.188 10.696-12.76z" fill="#f0c020"/></g><g><path d="m249.283 61.191c-4.094-1.353-8.322-2.535-10.696-12.76-2.186 9.418-5.689 11.106-10.696 12.76 8.166 2.698 9.398 7.166 10.696 12.76 2.238-9.643 5.939-11.188 10.696-12.76z" fill="#f0c020"/></g></g></g></g><path d="m212.617 157.198h-14.012c-1.381 0-2.5-1.119-2.5-2.5s1.119-2.5 2.5-2.5h11.512v-26.822c0-1.381 1.119-2.5 2.5-2.5s2.5 1.119 2.5 2.5v29.322c0 1.381-1.119 2.5-2.5 2.5zm0-39.322c-1.381 0-2.5-1.119-2.5-2.5v-2c0-1.381 1.119-2.5 2.5-2.5s2.5 1.119 2.5 2.5v2c0 1.381-1.119 2.5-2.5 2.5z" fill="#f8e5b0"/><path d="m57.396 157.198h-14.012c-1.381 0-2.5-1.119-2.5-2.5v-30.988c0-1.381 1.119-2.5 2.5-2.5s2.5 1.119 2.5 2.5v28.488h11.512c1.381 0 2.5 1.119 2.5 2.5s-1.12 2.5-2.5 2.5zm-14.012-40.988c-1.381 0-2.5-1.119-2.5-2.5v-.334c0-1.381 1.119-2.5 2.5-2.5s2.5 1.119 2.5 2.5v.334c0 1.381-1.119 2.5-2.5 2.5z" fill="#ffcbc3"/><path d="m88.521 217.176c-1.381 0-2.5-1.119-2.5-2.5v-1.801c0-1.381 1.119-2.5 2.5-2.5s2.5 1.119 2.5 2.5v1.801c0 1.381-1.119 2.5-2.5 2.5zm0-11.801c-1.381 0-2.5-1.119-2.5-2.5v-29c0-1.381 1.119-2.5 2.5-2.5s2.5 1.119 2.5 2.5v29c0 1.381-1.119 2.5-2.5 2.5z" fill="#efefef"/><path d="m167.479 217.176c-1.381 0-2.5-1.119-2.5-2.5v-1.801c0-1.381 1.119-2.5 2.5-2.5s2.5 1.119 2.5 2.5v1.801c0 1.381-1.119 2.5-2.5 2.5zm0-11.801c-1.381 0-2.5-1.119-2.5-2.5v-29c0-1.381 1.119-2.5 2.5-2.5s2.5 1.119 2.5 2.5v29c0 1.381-1.119 2.5-2.5 2.5z" fill="#efefef"/><path d="m202.53 62.14c-9.19 0-16.67 7.48-16.67 16.67s7.48 16.67 16.67 16.67 16.67-7.48 16.67-16.67-7.48-16.67-16.67-16.67zm0 28.339c-6.42-.01-11.66-5.239-11.67-11.67.01-6.42 5.25-11.66 11.67-11.67 6.43.01 11.66 5.25 11.67 11.67-.01 6.431-5.24 11.661-11.67 11.67z"/><path d="m248.109 108.34c-4.348-.598-8.268 2.316-8.922 6.648l-8.995 60.821c-.205 1.399-1.431 2.454-2.853 2.454h-6.313c1.315-1.884 2.093-4.168 2.093-6.634 0-6.128 0-51.211 0-58.25-.01-7.72-6.28-13.99-13.99-13.99-11.59 0-21.02 9.43-21.02 21.021v39.79h-19.75c-6.4.02-11.61 5.239-11.61 11.64v51.32h-1.03c-9.188.028-14.25 8.061-14.25 11.92 0 .085.021.166.025.25h-3.755v-85.431h33.15c4.13-.01 7.49-3.37 7.5-7.5v-3.59c-.01-4.14-3.37-7.5-7.5-7.5h-85.8c-4.13 0-7.5 3.36-7.5 7.5v3.59c0 4.13 3.37 7.49 7.5 7.5h33.15v85.431h-3.735c.198-4.02-5.022-12.142-14.225-12.17h-1.03v-19.32c0-1.38-1.12-2.5-2.5-2.5s-2.5 1.12-2.5 2.5v19.32h-13.219v-42.4c0-1.381-1.14-2.5-2.5-2.5h-34.01c-3.66 0-6.63-2.98-6.64-6.63v-6.43h49.76c3.64.01 6.61 2.989 6.61 6.64v11.99c0 1.38 1.12 2.5 2.5 2.5s2.5-1.12 2.5-2.5v-11.99c0-6.4-5.21-11.62-11.6-11.64h-19.75v-39.79c-.01-11.591-9.44-21.021-21.03-21.021-7.71 0-13.99 6.271-13.99 13.99v58.25c0 2.465.777 4.75 2.093 6.634h-6.312c-1.422 0-2.648-1.055-2.854-2.458l-8.996-60.824c-.653-4.324-4.564-7.241-8.941-6.639-4.348.637-7.287 4.674-6.648 8.946l10.349 70.015c.559 3.733 3.599 6.478 7.316 6.699v41.327h-12.237c-1.38 0-2.5 1.12-2.5 2.5 0 1.37 1.12 2.5 2.5 2.5h242.67c1.38 0 2.5-1.13 2.5-2.5 0-1.38-1.12-2.5-2.5-2.5h-12.203v-41.328c3.716-.223 6.753-2.967 7.313-6.704l10.348-70.006c.64-4.284-2.3-8.311-6.669-8.951zm-165.519 34.059v-3.59c0-1.38 1.12-2.5 2.5-2.5h85.8c1.37 0 2.49 1.12 2.5 2.5v3.59c-.01 1.37-1.13 2.49-2.5 2.5-3.646 0-82.171 0-85.8 0-1.38-.009-2.5-1.129-2.5-2.5zm50.15 7.5v85.42h-9.5v-85.42zm60.36-29.489c.02-8.82 7.21-16.011 16.03-16.021 4.94.01 8.98 4.04 8.99 8.99v46.82h-25.02zm-31.35 51.43c0-3.65 2.97-6.63 6.62-6.64h49.75v6.43c0 3.649-2.98 6.63-6.64 6.63h-34.01c-1.365 0-2.5 1.137-2.5 2.5v42.4h-13.22zm-15.27 63.16c1.25-4.09 4.96-6.84 9.23-6.84h19.26v6.01c0 .63-.52 1.149-1.15 1.149h-27.11c-.162 0-.28-.175-.23-.319zm33.49-.83c0-11.539 0-39.675 0-50.91h4.296c-1.952 4.939 1.456 10.293 6.662 10.731v41.339h-11.071c.072-.376.113-.763.113-1.16zm20.707 1.156h-4.75v-41.302h4.75zm-100.387-7.166c4.2 0 8 2.81 9.23 6.83.01.039.01.06.01.09 0 .109-.11.239-.24.239h-27.11c-.63 0-1.15-.52-1.15-1.149v-6.01zm-24.26 7.17h-10.953v-41.339c5.196-.44 8.612-5.784 6.657-10.731h4.295v52.07zm-20.703-41.306h4.75v41.302h-4.75zm-17.447-80.644c.01-4.95 4.04-8.98 8.99-8.99 8.82.01 16.01 7.2 16.03 16.021v39.79h-25.02zm-21.363 73.188-10.35-70.013c-.257-1.724 1.073-3.291 2.828-3.291 1.432 0 2.653 1.017 2.871 2.457l8.994 60.813c.561 3.836 3.915 6.729 7.8 6.729h35.748c1.588 0 2.88 1.292 2.88 2.881 0 1.588-1.292 2.88-2.88 2.88-5.289 0-37.271 0-45.038 0-1.44 0-2.641-1.035-2.853-2.456zm7.37 7.456h4.75v41.302h-4.75zm9.75 0h16.69v41.306h-16.69zm172.04 41.306v-41.306h16.69v41.306zm21.69-41.306h4.75v41.302h-4.75zm22.465-77.465-10.348 70.005c-.213 1.426-1.414 2.461-2.854 2.461-31.901 0-13.121 0-45.038 0-1.588 0-2.88-1.292-2.88-2.88 0-1.589 1.292-2.881 2.88-2.881h35.748c3.886 0 7.239-2.894 7.8-6.726l8.994-60.811c.239-1.586 1.687-2.659 3.272-2.438 1.566.23 2.662 1.683 2.426 3.27z"/><path d="m36.8 78.81c0 9.19 7.48 16.67 16.67 16.67s16.67-7.48 16.67-16.67c0-9.189-7.48-16.67-16.67-16.67s-16.67 7.48-16.67 16.67zm28.34 0c-.01 6.431-5.24 11.66-11.67 11.67-6.42-.01-11.66-5.239-11.67-11.67.01-6.42 5.25-11.66 11.67-11.67 6.43.009 11.66 5.25 11.67 11.67z"/><circle cx="96.75" cy="193.84" r="2.5"/><path d="m154.352 84.941h-52.479c-1.381 0-2.5 1.119-2.5 2.5s1.119 2.5 2.5 2.5h52.479c1.381 0 2.5-1.119 2.5-2.5s-1.119-2.5-2.5-2.5z"/><path d="m108.35 99.99h-6.48c-1.37 0-2.5 1.119-2.5 2.5 0 1.38 1.13 2.5 2.5 2.5h6.48c1.38 0 2.5-1.12 2.5-2.5 0-1.381-1.12-2.5-2.5-2.5z"/><circle cx="118.35" cy="102.49" r="2.5"/><path d="m154.35 99.99h-26c-1.38 0-2.5 1.119-2.5 2.5 0 1.38 1.12 2.5 2.5 2.5h26c1.38 0 2.5-1.12 2.5-2.5 0-1.381-1.12-2.5-2.5-2.5z"/><path d="m95.998 72.233c-4.136 0-7.5 3.364-7.5 7.5v22.858c0 .139-.058.271-.16.366l-11.208 10.41c-.753.7-1.001 1.789-.626 2.746.376.957 1.299 1.586 2.327 1.586h81.146c4.136 0 7.5-3.364 7.5-7.5v-30.466c0-4.136-3.364-7.5-7.5-7.5zm66.479 7.5v30.466c0 1.379-1.122 2.5-2.5 2.5h-74.78l6.543-6.077c1.117-1.036 1.758-2.506 1.758-4.03v-22.859c0-1.379 1.122-2.5 2.5-2.5h63.979c1.378 0 2.5 1.121 2.5 2.5z"/><path d="m154.101 28.383h-52.479c-1.381 0-2.5 1.119-2.5 2.5s1.119 2.5 2.5 2.5h52.479c1.381 0 2.5-1.119 2.5-2.5s-1.119-2.5-2.5-2.5z"/><circle cx="127.62" cy="45.93" r="2.5"/><path d="m117.62 43.43h-16c-1.38 0-2.5 1.12-2.5 2.5s1.12 2.5 2.5 2.5h16c1.38 0 2.5-1.12 2.5-2.5s-1.12-2.5-2.5-2.5z"/><path d="m154.1 43.43h-16.48c-1.38 0-2.5 1.12-2.5 2.5s1.12 2.5 2.5 2.5h16.48c1.38 0 2.5-1.12 2.5-2.5s-1.12-2.5-2.5-2.5z"/><path d="m178.844 56.809-11.208-10.41c-.101-.095-.159-.228-.159-.366v-22.859c0-4.136-3.364-7.5-7.5-7.5h-63.979c-4.136 0-7.5 3.364-7.5 7.5v30.467c0 4.136 3.364 7.5 7.5 7.5h81.146c2.268 0 3.36-2.79 1.7-4.332zm-82.846-.668c-1.378 0-2.5-1.121-2.5-2.5v-30.467c0-1.379 1.122-2.5 2.5-2.5h63.979c1.378 0 2.5 1.121 2.5 2.5v22.858c0 1.524.641 2.994 1.757 4.03l6.544 6.078h-74.78z"/><path d="m19.848 47.865c-.598-2.578-4.273-2.577-4.87 0-2.002 8.625-4.957 9.602-9.045 10.952-2.283.754-2.28 3.996 0 4.748 7.044 2.328 7.84 5.759 9.044 10.952.263 1.133 1.272 1.935 2.436 1.935s2.172-.802 2.436-1.935c2-8.624 4.955-9.6 9.044-10.952 2.282-.753 2.28-3.994 0-4.747-3.916-1.294-6.995-2.121-9.045-10.953zm-2.377 18.459c-1.02-1.842-2.492-3.582-4.764-5.071 1.795-1.162 3.384-2.786 4.715-5.324 1.355 2.581 2.935 4.194 4.561 5.29-1.71 1.135-3.228 2.704-4.512 5.105z"/><path d="m227.107 63.564c7.044 2.328 7.84 5.759 9.044 10.952.596 2.567 4.273 2.573 4.871 0 2-8.624 4.955-9.6 9.044-10.952 2.282-.753 2.28-3.994 0-4.747-3.916-1.293-6.995-2.12-9.045-10.953-.598-2.578-4.273-2.577-4.87 0-2.002 8.625-4.957 9.602-9.045 10.952-2.281.755-2.278 3.997.001 4.748zm11.49-7.636c1.355 2.581 2.935 4.194 4.561 5.29-1.71 1.136-3.229 2.705-4.512 5.106-1.02-1.842-2.492-3.582-4.764-5.071 1.795-1.163 3.384-2.786 4.715-5.325z"/></svg>